<?xml version="1.0" encoding="utf-8"?>
<!-- Generator: Adobe Illustrator 25.0.0, SVG Export Plug-In . SVG Version: 6.00 Build 0)  -->
<svg version="1.1" id="Camada_1" xmlns="http://www.w3.org/2000/svg" xmlns:xlink="http://www.w3.org/1999/xlink" x="0px" y="0px"
	 viewBox="0 0 1920 1080" style="enable-background:new 0 0 1920 1080;" xml:space="preserve">
<style type="text/css">
	.st0{fill-rule:evenodd;clip-rule:evenodd;fill:#201E1E;}
	.st1{fill-rule:evenodd;clip-rule:evenodd;fill:#FEFEFE;}
	.st2{fill:#FEFEFE;}
</style>
<g id="Camada_x0020_1">
	<g id="_2082465026176">
		<polygon class="st0" points="412.67,1080 1491,1080 1491,1.67 412.67,1.67 		"/>
		<path class="st1" d="M823.34,720.23c27.31,0,53.57-5.54,78.1-15.76v-71.51c-41.36,28.17-101.41,26.43-140.51-5.24
			c-47.26-38.28-79.76-118.03-79.76-210.2c0-92.38,32.64-172.28,80.07-210.46c41.4-33.33,106.05-33.13,147.26,0.26
			c5.26,4.26,10.33,9.04,15.2,14.29c9.71-19.98,22.33-38.28,37.3-54.35c-39.22-33.09-86.62-52.45-137.68-52.45
			c-135.13,0-244.67,135.53-244.67,302.71S688.21,720.23,823.34,720.23z M1122.57,521.76c111.8,0,202.42-90.92,202.42-203.09
			c0-112.16-90.63-203.08-202.42-203.08c-111.8,0-202.42,90.92-202.42,203.08c0,163.63,0,327.25,0,490.88
			c44.25-1.25,76.66-10.35,97.22-27.28V492.21V318.68h0.03c0-74.98,47.09-135.76,105.17-135.76s105.17,60.78,105.17,135.76
			s-47.09,135.76-105.17,135.76c-34.35,0-64.85-21.26-84.05-54.14v103.18C1064.13,515.22,1092.59,521.76,1122.57,521.76
			L1122.57,521.76z"/>
		<path class="st2" d="M517.26,965.41v-2.79c-6-0.67-7.25-1.64-10.12-10.1c-5.91-17.12-12-35.11-17.82-52.13l-3.04,0.87
			l-19.07,51.17c-3.31,8.56-4.57,9.23-10.47,10.2v2.79h20.23v-2.79c-7.07-0.77-7.79-1.83-5.73-7.89c1.16-3.94,2.42-7.89,3.85-12.41
			h19.7c1.97,5.87,3.67,10.97,4.83,14.81c1.25,3.75,0.45,4.62-5.37,5.48v2.79H517.26z M493.36,938.19h-16.65
			c2.69-7.98,5.46-16.45,8.51-24.62h0.18L493.36,938.19z M556.83,916.34c-0.72-6.24-1.25-10.08-1.61-13.55
			c-3.4-1.25-7.34-2.41-11.73-2.41c-11.91,0-19.07,7.98-19.07,17.6c0,10.87,8.95,15.77,15.22,19.24
			c6.98,3.94,11.82,7.41,11.82,14.52c0,7.02-3.94,11.64-10.74,11.64c-9.49,0-13.79-10.1-15.22-16.26l-2.69,0.77
			c0.54,4.81,1.79,13.37,2.42,15.49c0.9,0.48,2.24,1.15,4.66,1.92c2.24,0.77,5.28,1.54,9.04,1.54c12.36,0,20.59-8.27,20.59-18.66
			c0-10.77-8.41-15.39-15.94-19.53c-7.34-3.94-11.64-7.31-11.64-14.24c0-5.39,3.22-10.58,10.12-10.58c7.88,0,10.47,6.93,12.09,13.08
			L556.83,916.34L556.83,916.34z M600.7,916.34c-0.72-6.24-1.25-10.08-1.61-13.55c-3.4-1.25-7.34-2.41-11.73-2.41
			c-11.91,0-19.07,7.98-19.07,17.6c0,10.87,8.95,15.77,15.22,19.24c6.98,3.94,11.82,7.41,11.82,14.52c0,7.02-3.94,11.64-10.74,11.64
			c-9.49,0-13.79-10.1-15.22-16.26l-2.69,0.77c0.54,4.81,1.79,13.37,2.42,15.49c0.9,0.48,2.24,1.15,4.66,1.92
			c2.24,0.77,5.28,1.54,9.04,1.54c12.36,0,20.59-8.27,20.59-18.66c0-10.77-8.42-15.39-15.94-19.53
			c-7.34-3.94-11.64-7.31-11.64-14.24c0-5.39,3.22-10.58,10.12-10.58c7.88,0,10.47,6.93,12.09,13.08L600.7,916.34L600.7,916.34z
			 M654.51,949.44c-1.34,3.85-3.13,7.21-4.66,9.23c-2.06,2.5-4.75,3.27-11.55,3.27c-4.39,0-7.61-0.1-9.4-1.25
			c-1.7-1.15-2.24-3.27-2.24-7.89v-18.28h8.59c7.97,0,8.59,0.58,9.85,7.6h2.69v-18.85h-2.69c-1.16,6.54-1.7,7.31-9.94,7.31h-8.5
			v-22.12c0-2.89,0.18-3.08,3.13-3.08h6.81c6.53,0,8.95,0.67,10.3,2.69c1.25,2.21,2.15,4.43,3.04,8.37l2.78-0.38
			c-0.36-5.1-0.81-11.74-0.89-14.24h-41.18v2.89c7.07,0.58,7.79,0.96,7.79,9.72v38.67c0,7.98-0.72,8.75-9.13,9.52v2.79h44.76
			c0.81-3.08,2.6-12.22,3.13-15.58L654.51,949.44L654.51,949.44z M697.04,916.34c-0.72-6.24-1.25-10.08-1.61-13.55
			c-3.4-1.25-7.34-2.41-11.73-2.41c-11.91,0-19.07,7.98-19.07,17.6c0,10.87,8.95,15.77,15.22,19.24
			c6.98,3.94,11.82,7.41,11.82,14.52c0,7.02-3.94,11.64-10.74,11.64c-9.49,0-13.79-10.1-15.22-16.26l-2.69,0.77
			c0.54,4.81,1.79,13.37,2.42,15.49c0.89,0.48,2.24,1.15,4.65,1.92c2.24,0.77,5.28,1.54,9.04,1.54c12.36,0,20.59-8.27,20.59-18.66
			c0-10.77-8.41-15.39-15.94-19.53c-7.34-3.94-11.64-7.31-11.64-14.24c0-5.39,3.22-10.58,10.12-10.58c7.88,0,10.47,6.93,12.09,13.08
			L697.04,916.34L697.04,916.34z M740.9,916.34c-0.72-6.24-1.25-10.08-1.61-13.55c-3.4-1.25-7.34-2.41-11.73-2.41
			c-11.91,0-19.07,7.98-19.07,17.6c0,10.87,8.95,15.77,15.22,19.24c6.98,3.94,11.82,7.41,11.82,14.52c0,7.02-3.94,11.64-10.74,11.64
			c-9.49,0-13.79-10.1-15.22-16.26l-2.69,0.77c0.54,4.81,1.79,13.37,2.42,15.49c0.89,0.48,2.24,1.15,4.66,1.92
			c2.24,0.77,5.28,1.54,9.04,1.54c12.36,0,20.59-8.27,20.59-18.66c0-10.77-8.41-15.39-15.94-19.53
			c-7.34-3.94-11.64-7.31-11.64-14.24c0-5.39,3.22-10.58,10.12-10.58c7.88,0,10.47,6.93,12.09,13.08L740.9,916.34L740.9,916.34z
			 M782.36,900.39c-19.52,0-31.42,16.35-31.42,33.86c0,18.85,13.43,32.61,30.35,32.61c17.01,0,31.25-12.99,31.25-34.05
			c0-19.53-14.33-32.42-30.08-32.42H782.36z M780.57,904.04c12,0,22.11,10.87,22.11,31.36c0,18.85-9.22,27.9-19.43,27.9
			c-12.98,0-22.56-13.47-22.56-31.65c0-18.37,9.58-27.61,19.78-27.61C780.47,904.04,780.57,904.04,780.57,904.04z M874.84,963.68
			c-2.06-0.67-4.12-1.83-6.54-4.62c-2.24-2.4-4.03-5.1-7.43-10.29c-2.69-4.33-6.53-10.87-8.15-14.14
			c6.71-3.08,11.73-8.18,11.73-16.54c0-5.96-2.42-10.39-6.18-12.89c-3.49-2.5-7.88-3.37-14.86-3.37h-23.1v2.89
			c7.16,0.58,7.88,1.06,7.88,9.33v39.05c0,8.18-0.81,8.85-8.24,9.52v2.79h24.53v-2.79c-7.43-0.67-8.24-1.35-8.24-9.52v-15.39h2.78
			c4.66,0,6.27,1.15,7.88,3.94c2.69,4.71,5.91,10.77,9.13,15.58c4.12,6.35,7.97,8.46,15.13,8.85c1.07,0.1,2.15,0.1,3.31,0.1
			L874.84,963.68L874.84,963.68z M836.25,934.44v-24.05c0-2.69,0.27-3.75,0.98-4.23c0.72-0.58,2.33-0.96,4.92-0.96
			c6.8,0,13.25,3.85,13.25,14.33c0,5.39-1.43,9.14-4.92,12.12c-2.33,2.02-5.37,2.79-10.03,2.79H836.25L836.25,934.44z
			 M902.14,965.41v-2.79c-7.52-0.67-8.24-1.15-8.24-9.52v-38.86c0-8.37,0.72-8.95,8.24-9.52v-2.89h-24.71v2.89
			c7.52,0.58,8.24,1.15,8.24,9.52v38.86c0,8.27-0.72,8.85-8.24,9.52v2.79H902.14z M967.95,965.41v-2.79
			c-6-0.67-7.25-1.64-10.12-10.1c-5.91-17.12-12-35.11-17.82-52.13l-3.04,0.87l-19.07,51.17c-3.31,8.56-4.57,9.23-10.48,10.2v2.79
			h20.23v-2.79c-7.07-0.77-7.79-1.83-5.73-7.89c1.16-3.94,2.42-7.89,3.85-12.41h19.7c1.97,5.87,3.67,10.97,4.83,14.81
			c1.25,3.75,0.45,4.62-5.37,5.48v2.79H967.95L967.95,965.41z M944.04,938.19h-16.65c2.69-7.98,5.46-16.45,8.51-24.62h0.18
			L944.04,938.19z M1048.07,947.9c-4.75,9.91-9.76,15.39-19.25,15.39c-14.06,0-24.26-12.51-24.26-30.78
			c0-14.72,8.24-28.47,23.64-28.47c9.94,0,15.76,4.14,18.17,14.72l2.78-0.67c-0.54-5.39-1.16-9.52-1.97-15.01
			c-2.51-0.48-8.86-2.69-16.47-2.69c-20.95,0-35.9,13.56-35.9,34.05c0,15.58,10.21,32.42,33.39,32.42c6.71,0,14.68-2.02,17.28-2.6
			c1.61-3.27,4.03-10.68,5.28-15.29L1048.07,947.9L1048.07,947.9z M1088.09,900.39c-19.52,0-31.42,16.35-31.42,33.86
			c0,18.85,13.43,32.61,30.35,32.61c17.01,0,31.24-12.99,31.24-34.05c0-19.53-14.32-32.42-30.08-32.42H1088.09L1088.09,900.39z
			 M1086.3,904.04c12,0,22.11,10.87,22.11,31.36c0,18.85-9.22,27.9-19.43,27.9c-12.98,0-22.56-13.47-22.56-31.65
			c0-18.37,9.58-27.61,19.79-27.61H1086.3L1086.3,904.04z M1188.81,901.83h-21.84v2.89c6.45,0.38,8.68,1.64,9.13,6.06
			c0.27,2.79,0.63,7.21,0.63,16.26v23.47h-0.27l-38.5-48.67h-13.97v2.89c4.3,0.38,6.27,1.15,8.24,3.56c1.61,2.31,1.79,2.89,1.79,10
			v21.26c0,8.95-0.27,13.56-0.54,16.74c-0.54,4.71-2.86,6.06-8.06,6.35v2.79h21.84v-2.79c-6.36-0.38-8.33-1.73-8.86-6.64
			c-0.27-2.89-0.54-7.5-0.54-16.45V915.3h0.18l39.57,51.08h2.95v-39.34c0-9.04,0.27-13.47,0.54-16.45c0.45-4.42,2.6-5.58,7.7-5.87
			V901.83L1188.81,901.83z M1245.84,917.03c-0.45-5.77-0.9-13.08-0.9-17.6h-1.88c-1.52,1.83-2.33,2.4-4.74,2.4h-36.71
			c-2.69,0-3.76-0.1-5.1-2.4h-1.88c-0.18,5.39-0.72,11.83-1.16,17.89h2.78c1.08-4.43,1.88-7.31,2.95-8.95
			c1.34-2.12,3.13-2.98,10.83-2.98h5.55v47.9c0,7.69-0.81,8.66-9.04,9.33v2.79h26.68v-2.79c-8.6-0.67-9.49-1.73-9.49-9.33v-47.9
			h6.36c6.98,0,8.51,0.77,10.03,2.98c1.07,1.54,2.06,4.14,3.04,8.95L1245.84,917.03L1245.84,917.03z M1294.9,891.54
			c-0.27-1.54-2.86-5.39-4.03-5.67c-4.39,2.98-9.67,6.83-14.5,10.2l1.16,2.5l17.19-6.25L1294.9,891.54L1294.9,891.54z
			 M1310.48,965.41v-2.79c-6-0.67-7.25-1.64-10.12-10.1c-5.91-17.12-12-35.11-17.82-52.13l-3.04,0.87l-19.07,51.17
			c-3.31,8.56-4.57,9.23-10.47,10.2v2.79h20.23v-2.79c-7.07-0.77-7.79-1.83-5.73-7.89c1.16-3.94,2.42-7.89,3.85-12.41h19.7
			c1.97,5.87,3.67,10.97,4.83,14.81c1.25,3.75,0.45,4.62-5.37,5.48v2.79H1310.48z M1286.58,938.19h-16.65
			c2.69-7.98,5.46-16.45,8.51-24.62h0.18L1286.58,938.19z M1346.74,930.97c5.28-1.63,12.62-5.29,12.62-14.62
			c0-4.52-1.97-8.85-5.19-11.16c-2.95-2.21-6.98-3.37-13.97-3.37h-23.99v2.89c7.34,0.58,7.7,1.15,7.7,9.33v39.15
			c0,8.18-0.54,8.75-8.42,9.43v2.79h20.68c7.25,0,13.52-1.15,18.17-3.94c5.46-3.17,8.68-8.27,8.68-14.81
			c0-9.72-7.07-14.04-16.29-15.49V930.97L1346.74,930.97z M1332.06,930.01v-19.05c0-3.17,0.36-4.23,1.16-4.81
			c0.9-0.58,2.87-1.06,5.1-1.06c8.5,0,12.09,5.68,12.09,12.5c0,8.18-4.12,12.41-14.15,12.41L1332.06,930.01L1332.06,930.01z
			 M1332.06,933.28h4.03c11.19,0,17.55,4.52,17.55,14.33c0,10.29-6.63,14.24-13.88,14.33c-5.91,0-7.7-1.83-7.7-8.95V933.28z
			 M1394.9,965.41v-2.79c-7.52-0.67-8.24-1.15-8.24-9.52v-38.86c0-8.37,0.72-8.95,8.24-9.52v-2.89h-24.71v2.89
			c7.52,0.58,8.24,1.15,8.24,9.52v38.86c0,8.27-0.72,8.85-8.24,9.52v2.79H1394.9z M1444.23,949.35c-1.52,4.52-3.22,7.69-4.83,9.62
			c-2.15,2.4-5.28,2.98-10.21,2.98c-3.85,0-6.89-0.19-8.68-1.25c-1.7-0.96-2.15-2.89-2.15-8.08v-38.47c0-8.47,0.81-8.95,8.15-9.43
			v-2.89h-24.44v2.89c7.43,0.58,8.06,1.06,8.06,9.43v38.76c0,8.37-0.72,9.04-8.42,9.72v2.79h41.81c0.98-2.98,2.86-12.41,3.4-15.58
			L1444.23,949.35L1444.23,949.35z"/>
	</g>
</g>
</svg>
