<?xml version="1.0" encoding="utf-8"?>
<!-- Generator: Adobe Illustrator 27.1.1, SVG Export Plug-In . SVG Version: 6.00 Build 0)  -->
<svg version="1.1" id="Camada_1" xmlns="http://www.w3.org/2000/svg" xmlns:xlink="http://www.w3.org/1999/xlink" x="0px" y="0px"
	 viewBox="0 0 1080 1080" style="enable-background:new 0 0 1080 1080;" xml:space="preserve">
<style type="text/css">
	.st0{fill:#2F0459;}
	.st1{fill:#5C12A6;}
	.st2{fill:#F7BE1E;}
	.st3{fill:#FFA21A;}
	.st4{display:none;}
	.st5{display:inline;fill:#F5B03F;}
	.st6{display:inline;fill:#9C4F95;}
	.st7{display:inline;fill:#ED7480;}
	.st8{display:inline;fill:#DE4E9A;}
	.st9{fill:#EA911B;}
	.st10{fill:#D8821A;}
	.st11{fill:#4E0E8F;}
	.st12{fill:#3B086E;}
	.st13{fill:#FFFFFF;}
	.st14{opacity:0.9;fill:#FFFFFF;}
	.st15{opacity:0.8;fill:#FFFFFF;}
	.st16{opacity:0.7;fill:#FFFFFF;}
	.st17{opacity:0.9;}
	.st18{opacity:0.8;}
	.st19{opacity:0.7;}
	.st20{fill:url(#SVGID_1_);}
	.st21{opacity:0.25;}
	.st22{fill:#2C0B5B;}
	.st23{fill:none;stroke:#FFFFFF;stroke-width:0.25;stroke-miterlimit:10;}
	.st24{fill:url(#SVGID_00000080887213025974019030000003221304164760925337_);}
	.st25{opacity:0.15;}
	.st26{opacity:0.9;fill:#2C0B5B;}
	.st27{opacity:0.8;fill:#2C0B5B;}
	.st28{opacity:0.7;fill:#2C0B5B;}
	.st29{fill:url(#SVGID_00000083047494084498811030000009829541758828472496_);}
</style>
<g class="st4">
	<path class="st5" d="M906.27,357.23c-7.8-0.07-7.8-0.07-7.26-7.77c2.53-36.43,33.9-68.77,70.22-72.43
		c10.31-1.04,10.13-1.03,10.43,9.17c0.12,4.15-0.49,5.81-5.38,6.25c-36.05,3.22-58.67,32.19-59.56,60.86
		c-0.1,3.16-1.06,4.68-4.47,3.96C908.98,357,907.6,357.23,906.27,357.23z"/>
	<path class="st6" d="M1032.46,357.19c-7.43,0-7.43,0-8.51-7.44c-2.88-19.92-19.43-35.31-40.83-37.51
		c-3.41-0.35-4.37-1.46-3.99-4.49c0.02-0.16,0-0.33,0-0.5c0.39-13.26-2.81-12.52,12.04-9.81c27.44,5.01,47.27,28.19,49.21,55.97
		c0.2,2.85-0.52,4.06-3.44,3.8C1035.47,357.08,1033.96,357.19,1032.46,357.19z"/>
	<path class="st7" d="M979.68,324.86c0.93,4.18-0.51,6.52-6.44,7.76c-10.91,2.27-17.32,10-19.09,21.05
		c-0.45,2.82-1.43,3.68-4.07,3.51c-2.48-0.16-5-0.26-7.46,0.01c-3.86,0.42-4.9-1.09-4.51-4.82c1.86-17.86,17.31-34.13,35.25-36.14
		C979.84,315.51,979.24,313.63,979.68,324.86z"/>
	<path class="st8" d="M992.29,357.16c-6.2,3.18-7.88-4.83-12.62-6.49c-0.65-0.23-0.81-13.45-0.32-14.2c0.79-1.21,1.93-0.9,3.11-0.79
		c8.44,0.77,16.94,8.74,18.41,17.19c0.54,3.13-0.26,4.77-3.77,4.32C995.79,357.02,994.45,357.16,992.29,357.16z"/>
</g>
<g>
	<g>
		<path d="M239.66,705.87l-7.81,0l-0.01,123.2l-42.08,0l0.03-329.68l47.28,0c42.51,0,60.73,15.62,60.72,102.38
			C297.79,691.56,276.53,705.87,239.66,705.87z M237.07,533.66l-5.2,0l-0.01,137.95l6.07,0c13.88,0,18.22-5.64,18.23-70.27
			C256.16,539.3,250.52,533.66,237.07,533.66z"/>
		<path d="M316.43,773.98l0.02-219.06c0-43.81,21.69-59.86,52.49-59.86c32.97,0,55.09,15.19,55.09,59.87l-0.02,219.06
			c0,45.11-22.56,60.3-55.1,60.29C336.38,834.28,316.43,816.93,316.43,773.98z M381.93,784.83l0.02-239.88
			c0-11.71-5.21-16.05-11.71-16.05c-7.38,0-11.71,4.34-11.71,16.05l-0.02,239.88c0,12.15,4.77,15.62,11.71,15.62
			C376.29,800.45,381.93,796.54,381.93,784.83z"/>
		<path d="M549.36,829.09l-26.46,0l-37.72-187.4l-2.17,0l-0.02,187.4l-34.27,0l0.03-329.68l32.97,0l31.22,170.48l1.74,0l0.01-170.48
			l34.7,0L549.36,829.09z"/>
		<path d="M669.53,533.69l-30.8,0l-0.02,295.41l-42.08,0l0.02-295.41l-30.8,0l0-34.27l103.67,0.01L669.53,533.69z"/>
		<path d="M685.99,794.83l45.11,0l0.01-122.33l-36,0l0-34.27l36,0l0.01-104.54l-44.68,0l0-34.27l86.76,0.01l-0.03,329.68
			l-87.19-0.01L685.99,794.83z"/>
		<path d="M889,768.82c0,49.02-19.96,65.5-55.1,65.5c-32.53,0-46.85-20.83-46.84-70.28c0-18.22,1.74-35.14,3.47-44.25l32.53,2.6
			c-1.3,7.37-3.04,21.69-3.04,36.87c0,33.4,4.33,41.21,15.61,41.21c8.24,0,11.71-5.64,11.71-21.25l0-20.82
			c0-26.46-3.9-51.62-29.06-88.06c-24.29-35.57-32.96-62.9-32.96-102.38l0-8.24c0-42.51,16.06-65.07,52.93-65.06
			c36.44,0,48.15,25.6,48.14,71.14c0,22.56-0.87,33.4-2.17,42.08l-32.97-2.61c1.3-7.37,2.17-19.09,2.17-34.7
			c0-33.84-4.33-41.64-13.88-41.64c-8.24,0-11.71,4.77-11.71,19.95l0,13.01c0,22.12,4.33,50.32,23.42,78.08
			c23.86,34.7,37.73,69.41,37.73,114.96L889,768.82z"/>
	</g>
	<g>
		<path d="M216.69,900.89l0.35-1.08l0.1-0.45l0.01-0.1c0.07-4.09-1.23-7.31-3.87-9.56c-2.56-2.19-5.94-3.29-10.04-3.29
			c-4.39,0-7.96,1.66-10.62,4.92c-2.58,3.17-3.89,7.33-3.89,12.37v5.38c0,5.05,1.31,9.22,3.89,12.39c2.66,3.26,6.23,4.91,10.61,4.91
			c4.1,0,7.48-1.1,10.04-3.28c2.64-2.24,3.95-5.48,3.87-9.62l-0.45-1.62h-3.73v1.5c0,2.97-0.81,5.09-2.49,6.5
			c-1.73,1.45-4.16,2.19-7.24,2.19c-3.06,0-5.44-1.11-7.3-3.41c-1.91-2.35-2.87-5.57-2.87-9.56v-5.43c0-3.94,0.97-7.13,2.88-9.5
			c1.86-2.3,4.24-3.42,7.3-3.42c3.07,0,5.49,0.76,7.22,2.27c1.69,1.48,2.51,3.56,2.51,6.37v1.5H216.69z"/>
		<path d="M271.62,886.41c-4.67,0-8.4,1.62-11.08,4.8c-2.62,3.11-3.94,7.31-3.94,12.49v5.38c0,5.2,1.34,9.41,3.97,12.51
			c2.7,3.18,6.43,4.79,11.1,4.79c4.65,0,8.38-1.61,11.07-4.79c2.63-3.1,3.96-7.31,3.96-12.51v-5.38c0-5.18-1.34-9.38-3.98-12.5
			C280,888.03,276.27,886.41,271.62,886.41z M282.36,909.09c0,4.08-0.95,7.32-2.82,9.63c-1.82,2.24-4.4,3.33-7.87,3.33
			c-3.47,0-6.05-1.09-7.88-3.35c-1.88-2.31-2.83-5.55-2.83-9.62v-5.43c0-4.04,0.95-7.25,2.82-9.57c1.82-2.25,4.39-3.34,7.84-3.34
			c3.47,0,6.06,1.1,7.9,3.35c1.89,2.31,2.84,5.53,2.84,9.56V909.09z"/>
		<polygon points="345.67,918.7 331.61,886.93 327.29,886.93 327.29,925.86 331.62,925.86 331.62,897.69 344.17,925.86 
			347.18,925.86 359.42,898.41 359.42,925.86 363.75,925.86 363.75,886.93 359.77,886.93 		"/>
		<path d="M428.85,912.29c0,3.02-0.87,5.34-2.65,7.12c-1.79,1.77-4.01,2.64-6.78,2.64c-2.79,0-5.01-0.86-6.8-2.64
			c-1.79-1.77-2.65-4.1-2.65-7.12v-25.36h-4.33v25.36c0,4.33,1.31,7.8,3.88,10.32c2.57,2.5,5.9,3.77,9.91,3.77
			c3.99,0,7.31-1.26,9.88-3.76c2.58-2.5,3.89-5.98,3.89-10.33v-25.36h-4.33V912.29z"/>
		<polygon points="499.62,917.22 478.71,886.93 475.06,886.93 475.06,925.86 479.42,925.86 479.42,895.51 500.33,925.86 
			503.95,925.86 503.95,886.93 499.62,886.93 		"/>
		<rect x="547.19" y="886.93" width="4.33" height="38.93"/>
		<path d="M621.32,900.89l0.36-1.07l0.1-0.45l0.01-0.1c0.07-4.09-1.23-7.31-3.87-9.56c-2.56-2.19-5.94-3.29-10.04-3.29
			c-4.39,0-7.96,1.66-10.61,4.92c-2.58,3.17-3.89,7.33-3.89,12.37v5.38c0,5.05,1.31,9.22,3.89,12.39c2.66,3.26,6.23,4.91,10.61,4.91
			c4.1,0,7.48-1.1,10.04-3.28c2.64-2.25,3.95-5.48,3.87-9.62l-0.46-1.62h-3.73v1.5c0,2.97-0.81,5.09-2.49,6.5
			c-1.73,1.45-4.16,2.19-7.24,2.19c-3.05,0-5.44-1.11-7.3-3.41c-1.91-2.35-2.88-5.57-2.88-9.56v-5.43c0-3.94,0.97-7.13,2.88-9.5
			c1.86-2.3,4.25-3.42,7.3-3.42c3.07,0,5.49,0.76,7.22,2.27c1.69,1.48,2.51,3.56,2.51,6.37v1.5H621.32z"/>
		<path d="M676.38,886.93h-3.71l-14.55,38.93h4.66l4.02-10.73h15.47l4.02,10.73h4.66l-14.45-38.61L676.38,886.93z M668.42,910.79
			l6.12-16.35l6.12,16.35H668.42z"/>
		<path d="M754.74,900.89l0.35-1.08l0.1-0.44l0.01-0.1c0.07-4.09-1.23-7.31-3.87-9.56c-2.56-2.19-5.94-3.29-10.04-3.29
			c-4.39,0-7.96,1.66-10.61,4.92c-2.58,3.17-3.89,7.33-3.89,12.37v5.38c0,5.05,1.31,9.22,3.89,12.39c2.03,2.48,4.6,4.04,7.66,4.63
			l-0.58,2.82l1.68,0.14c2.26,0.19,3.12,0.51,3.44,0.68c0.12,0.07,0.34,0.19,0.34,0.88c0,0.26,0,0.75-1.03,1.23
			c-1.05,0.5-2.33,0.75-3.81,0.75h-1.73l0.61,4.21h1.3c2.7,0,4.85-0.51,6.4-1.52c1.72-1.12,2.63-2.74,2.63-4.67
			c0-1.9-0.65-3.33-1.93-4.26c-0.17-0.12-0.35-0.24-0.54-0.35c2.42-0.49,4.51-1.47,6.22-2.92c2.64-2.25,3.95-5.48,3.87-9.62
			l-0.45-1.62h-3.74v1.5c0,2.97-0.81,5.09-2.49,6.5c-1.73,1.45-4.16,2.19-7.24,2.19c-3.05,0-5.44-1.11-7.3-3.41
			c-1.91-2.35-2.88-5.57-2.88-9.56v-5.43c0-3.94,0.97-7.13,2.88-9.5c1.86-2.3,4.24-3.42,7.3-3.42c3.07,0,5.49,0.76,7.22,2.27
			c1.69,1.48,2.51,3.56,2.51,6.37v1.5H754.74z"/>
		<path d="M802.38,884.75c0-0.62,0.15-1.07,0.45-1.39c0.29-0.31,0.6-0.44,1.04-0.44c0.31,0,1.03,0.16,2.34,1.21
			c1.55,1.24,3.14,1.87,4.74,1.87c1.63,0,3.03-0.58,4.16-1.73c1.12-1.14,1.69-2.61,1.69-4.36v-1.25l-4.36-0.79v1.8
			c0,0.64-0.16,1.14-0.49,1.5c-0.3,0.33-0.6,0.48-1,0.48c-0.19,0-0.92-0.09-2.39-1.22c-1.59-1.22-3.17-1.84-4.69-1.84
			c-1.66,0-3.06,0.56-4.16,1.66c-1.11,1.1-1.68,2.54-1.68,4.26v1.25l4.36,0.79V884.75z"/>
		<path d="M809.79,886.93h-3.71l-14.55,38.93h4.66l4.02-10.73h15.47l4.02,10.73h4.66l-14.45-38.61L809.79,886.93z M801.83,910.79
			l6.12-16.35l6.12,16.35H801.83z"/>
		<path d="M886.04,891.21c-2.71-3.18-6.44-4.8-11.09-4.8c-4.67,0-8.4,1.62-11.08,4.8c-2.62,3.11-3.94,7.31-3.94,12.49v5.38
			c0,5.2,1.34,9.4,3.97,12.51c2.69,3.18,6.43,4.79,11.1,4.79c4.65,0,8.38-1.61,11.06-4.79c2.63-3.1,3.96-7.31,3.96-12.51v-5.38
			C890.03,898.53,888.69,894.32,886.04,891.21z M885.69,909.09c0,4.08-0.95,7.32-2.82,9.63c-1.83,2.24-4.4,3.33-7.87,3.33
			c-3.47,0-6.05-1.09-7.88-3.35c-1.88-2.31-2.83-5.55-2.83-9.62v-5.43c0-4.04,0.95-7.25,2.83-9.57c1.82-2.25,4.39-3.34,7.84-3.34
			c3.47,0,6.05,1.1,7.89,3.35c1.89,2.31,2.85,5.53,2.85,9.56V909.09z"/>
	</g>
	<g>
		<path class="st2" d="M367.6,398.92c0-111.28,90.21-201.49,201.49-201.49c2.15,0,4.27,0.1,6.4,0.16v-51.25
			c-2.13-0.05-4.26-0.08-6.4-0.08c-139.54,0-252.66,113.12-252.66,252.66c0,3.21,0.08,6.41,0.2,9.59h51.22
			C367.69,405.33,367.6,402.14,367.6,398.92z"/>
		<path class="st3" d="M575.49,210.72v50.81c79.22,2.82,142.88,67.09,145.52,146.98h50.41
			C768.74,300.56,682.54,213.58,575.49,210.72z"/>
		<path class="st9" d="M444.36,395.72c0,4.32,0.23,8.59,0.67,12.79h51.68c-0.76-4.15-1.18-8.42-1.18-12.79
			c0-38.86,31.5-70.36,70.36-70.36c3.26,0,6.46,0.24,9.59,0.67V274.6c-3.17-0.25-6.36-0.41-9.59-0.41
			C498.77,274.19,444.36,328.6,444.36,395.72z"/>
		<path class="st10" d="M575.49,332.02v42.05c17.19,3.73,30.71,17.25,34.43,34.43h42.05C648.87,367.69,616.3,335.13,575.49,332.02z"
			/>
	</g>
</g>
</svg>
