<?xml version="1.0" encoding="UTF-8" standalone="no"?>
<svg
   version="1.1"
   width="2834.6457"
   height="2834.6457"
   id="svg298"
   sodipodi:docname="Point_Brinquedos.svg"
   inkscape:version="1.2.2 (732a01da63, 2022-12-09)"
   inkscape:export-filename="ULTIMA LOGO .cdr.svg"
   inkscape:export-xdpi="20.32"
   inkscape:export-ydpi="20.32"
   xmlns:inkscape="http://www.inkscape.org/namespaces/inkscape"
   xmlns:sodipodi="http://sodipodi.sourceforge.net/DTD/sodipodi-0.dtd"
   xmlns="http://www.w3.org/2000/svg"
   xmlns:svg="http://www.w3.org/2000/svg">
  <defs
     id="defs302" />
  <sodipodi:namedview
     id="namedview300"
     pagecolor="#505050"
     bordercolor="#eeeeee"
     borderopacity="1"
     inkscape:showpageshadow="0"
     inkscape:pageopacity="0"
     inkscape:pagecheckerboard="0"
     inkscape:deskcolor="#505050"
     showgrid="false"
     inkscape:zoom="0.098221548"
     inkscape:cx="1684.9663"
     inkscape:cy="1242.09"
     inkscape:window-width="1366"
     inkscape:window-height="705"
     inkscape:window-x="-8"
     inkscape:window-y="-8"
     inkscape:window-maximized="1"
     inkscape:current-layer="Layer1000" />
  <g
     id="Layer1000">
    <path
       d="m 2268.9549,372.47976 c 0.2397,27.7827 4.1105,56.8151 2.4168,84.3856 -1.9963,32.4433 -13.463,40.5502 -21.9943,64.2853 14.5083,-10.2289 34.7578,-44.3108 44.4523,-66.7453 7.5449,-17.4555 24.6743,-66.7217 33.4493,-78.1806 -0.3734,30.7103 -6.2482,69.8812 -13.6399,98.1276 -11.8872,45.419 -20.6818,46.0477 -35.6538,73.7243 48.3388,-11.3174 74.7736,-66.1912 96.0213,-75.9524 -12.2842,87.3092 -113.1979,195.7992 -205.1637,216.5125 -51.5729,11.6161 -76.6323,4.6409 -123.5918,-6.5626 2.0277,16.988 5.0771,50.4451 8.551,66.1402 6.0399,27.315 9.3565,33.1427 -1.5287,61.3891 -12.8893,33.4414 -36.5537,66.1441 -82.0631,62.3009 -34.243,79.0805 -142.6742,155.31204 -243.8315,149.25244 -59.613,-3.5681 -107.712,-23.51904 -145.645,-50.85374 -32.4394,-23.3776 -74.2942,-72.463 -86.7512,-110.1563 -45.7059,3.7489 -64.3836,-35.0015 -78.1846,-70.282 -37.9526,5.0968 -25.3738,-8.7317 -43.4463,-6.2403 -17.9978,2.4797 -28.38,5.9731 -49.0814,6.763 -15.3572,32.9895 -30.3999,75.3709 -79.3988,71.7517 -13.6792,40.6484 -57.4949,85.3326 -87.1796,105.4013 -38.88,26.2816 -88.0322,42.86484 -144.7294,45.58024 -59.64827,2.8608 -115.70877,-8.0519 -157.28067,-35.42204 -33.2764,-21.9118 -73.6812,-68.0185 -86.6255,-103.8216 -40.8213,3.2616 -38.1098,-15.1725 -64.3364,-14.8345 -25.3306,0.3262 -51.2624,-0.1768 -75.1351,-5.757 -40.3026,-9.4194 -76.3494,-36.7698 -76.3258,-83.7764 0.0236,-52.2881 74.7107,-102.906 114.1134,-125.9024 12.0091,-7.0105 40.782,-22.6152 49.3841,-30.3055 -1.7173,-54.1901 12.402,-96.0252 36.9231,-131.8441 19.9194,-29.0952 17.3612,-20.7093 29.83,-34.4788 17.5184,-19.3536 28.6355,-20.395 32.3451,-30.3017 2.7232,-7.2777 -1.6937,-6.3778 5.9691,-13.3765 21.6642,-19.7898 43.3127,1.2889 43.3599,1.3086 4.303,1.6426 32.0307,2.2634 39.3988,3.0887 64.7804,7.2423 120.73877,41.7408 152.38037,95.6872 6.4643,-5.3876 8.7868,-12.5749 14.6537,-18.9252 55.2668,-59.8252 117.5991,-31.1151 169.7221,-22.5091 -0.448,-22.6585 -14.8345,-26.3759 -34.8915,-30.1798 -46.142,-8.7435 -92.9836,-7.0656 -131.5021,20.5246 -7.156,5.1243 -10.5865,10.7948 -17.7071,15.5654 -7.9733,-5.3404 -13.4669,-14.8109 -20.4696,-21.676 -4.7942,-4.6999 -6.0831,-5.1833 -10.893,-9.0697 -20.725,-16.7246 -41.67797,-31.3351 -68.68657,-40 -23.739,-7.6196 -47.7218,-9.5569 -72.9463,-11.341 -22.7566,-1.6072 -31.2643,-23.798 -68.1442,-3.7882 -12.068,6.5429 -13.5573,10.4411 -19.2396,22.9021 -2.7233,5.9848 -39.0726,33.1349 -61.6918,66.9575 -23.0003,34.3884 -39.4773,74.4513 -39.4773,131.3174 -52.4964,27.7749 -107.7946,60.8469 -143.2598,109.5983 -44.0947,60.6189 -9.9931,133.7578 56.9998,156.3297 50.4254,16.988 90.897,5.309 110.0226,16.4024 13.2705,7.6982 16.3435,8.2366 36.1254,8.2366 23.126,43.7057 55.1528,82.8333 99.8134,106.46634 -14.7087,30.6592 -5.0221,41.01 -37.6815,42.1692 -10.1032,0.3615 -13.8521,2.1928 -24.4229,2.1928 12.4767,-25.9987 26.8907,-84.67644 -33.2331,-79.84294 -12.5985,1.0099 -23.3068,7.4153 -26.6549,19.9548 -22.2537,-1.8508 -30.4392,-25.3345 -71.1858,-17.9585 -9.4273,1.7054 -8.4095,0.5265 -12.5631,7.4074 -5.4348,8.995 -7.1913,18.9252 -7.1913,32.73414 -48.5903,25.7078 -7.8476,53.3844 -4.4366,66.5409 1.6229,6.26 -8.7514,20.9647 -2.959,36.2236 3.6545,9.6198 13.8127,16.9329 20.0609,24.3089 3.2144,3.7961 5.2618,7.1598 8.4487,11.51 18.9292,25.8296 54.6891,4.0515 71.5317,-12.6653 20.7014,-20.5443 24.7725,-19.6798 71.5237,-17.1215 9.4666,0.5187 7.7218,1.45 15.809,1.9491 11.4039,0.7034 10.7673,-1.3243 19.6483,-2.0631 4.7274,9.8556 10.7712,20.1592 13.3059,31.0561 -12.7282,2.963 -22.1083,7.7689 -34.2038,12.3706 -13.1133,4.9867 -22.3676,8.7906 -35.3984,13.4001 -103.3658,36.5694 -217.8329,109.6336 -284.9751,198.5658 -16.2216,21.4834 -26.0143,35.0211 -35.5084,59.8684 -39.7563,104.0063 -12.7321,191.9757 52.6064,272.8638 l 22.4502,26.3484 c 8.8849,11.0699 38.4517,35.4573 50.7083,44.6685 5.2382,3.9375 10.0403,4.8845 15.4829,8.9164 5.5801,4.134 6.6175,6.4603 13.0425,11.3567 5.2461,3.9925 9.4469,6.2639 14.3197,10.0796 13.0465,10.2053 26.9221,23.2439 42.4836,30.7103 l 51.1524,19.8251 c 14.8266,4.916 21.0826,8.3977 33.9247,14.8738 17.8721,9.0107 34.0938,16.3591 53.4355,19.7622 7.5646,1.3283 12.905,1.7762 13.8639,10.5354 45.474,0 23.4011,16.8622 41.902,40.1651 9.4744,11.9305 19.3614,24.7805 35.7324,28.5962 v 6.6529 c -20.2849,0 -29.052,-4.4366 -46.5822,-4.4366 v 11.0895 l -87.2071,-21.2673 c -0.2711,-0.094 -0.8566,-0.3734 -1.1081,-0.4362 l -18.1786,-0.2869 c -27.8299,-2.3774 -95.9388,6.7276 -125.1126,14.414 -29.4803,7.7689 -23.7233,1.0846 -52.8303,-5.2068 -18.159,-3.9257 -44.0594,-6.0556 -63.7942,-7.1952 -18.1078,-1.0453 -47.4663,2.6014 -64.3364,4.4444 -19.829,2.1731 -39.1158,8.995 -57.6638,13.3177 0,44.8452 6.814,88.1658 6.6568,133.0819 -0.0825,23.515 6.5154,46.5036 1.3518,68.1796 -1.7722,7.4506 -2.6407,6.649 -0.6169,12.8578 0.165,0.5069 0.4362,1.0964 0.6091,1.6269 0.1768,0.5541 0.3969,1.1396 0.5698,1.7173 7.0537,23.4875 0.503,107.5155 6.9555,135.2117 18.2493,0.4048 43.2498,10.9992 117.5597,11.0895 67.5823,0.083 87.2778,-18.1825 108.6866,-19.9626 1.9884,8.547 4.9003,12.4373 6.6529,19.9626 24.9612,-5.8159 55.6518,-7.9811 83.0455,-12.3352 15.2589,-2.4246 25.0595,-5.0299 38.7425,-7.8396 22.572,-4.6331 18.5991,-7.4743 34.1291,6.2088 12.5946,11.0974 17.4556,8.7867 35.4377,11.1485 27.4684,3.6074 68.1954,0.6602 96.9958,0.5973 18.9567,-0.043 28.8673,2.2202 46.5783,2.2202 1.623,-6.9673 7.5803,-15.5536 11.0895,-22.1829 28.41927,19.0313 8.0165,18.9488 72.23897,10.1346 42.3303,-5.812 24.5446,-4.3894 47.5371,-47.8397 21.2201,0.4716 74.3806,20.729 96.2138,27.9988 67.4801,22.458 66.5685,22.8196 120.8253,65.4918 14.4611,11.3724 24.9101,16.646 34.3924,17.4123 h 4.7863 c 12.8618,-1.0217 24.8472,-10.2643 44.1458,-23.4758 13.0386,-8.9243 19.892,-21.4167 32.349,-29.7593 25.9515,6.0477 35.0408,12.7321 69.3349,17.1687 40.3144,5.2146 80.8528,-1.1318 117.8938,-9.6041 58.5755,-13.3962 16.6382,-17.6246 110.9422,-1.8588 37.4968,6.2718 78.0627,12.1781 116.5969,14.2686 36.1961,1.9649 85.2737,-5.7962 116.1372,-14.7519 17.6756,-5.1282 32.8913,-9.8713 48.8143,-17.9114 13.9345,-7.038 14.0878,-0.9392 25.8846,5.9652 36.4987,21.3499 88.7593,20.8626 127.2228,7.5725 25.8336,-8.9243 25.476,1.5679 65.1892,10.7319 114.5732,26.4427 239.2495,-30.8636 154.471,-172.2174 -5.1989,-8.6688 -11.7536,-20.2024 -12.0248,-32.3333 13.9307,-6.6882 16.9605,-2.2202 35.4888,-2.2202 0,-14.1271 2.3303,-18.5205 2.2713,-33.2174 -0.043,-10.6101 -0.8723,-25.0516 0.2712,-35.2177 l 1.8823,-51.3528 c 0.5187,-9.8948 2.0159,-8.0951 2.2281,-17.7306 -10.6258,-0.2397 -28.1442,-4.4287 -37.7051,-6.6568 11.6397,-17.3849 24.1989,-31.457 24.5801,-55.4593 0.3968,-24.8984 -14.6616,-43.6114 -29.0167,-53.2234 6.4329,-9.608 30.2152,-47.596 31.0522,-57.6717 -12.736,-2.9669 -23.4601,-10.5275 -36.2904,-14.7244 -43.6585,-14.2804 -84.7078,-3.7843 -118.9744,19.161 -15.0624,-22.4973 -50.9992,-32.6515 -77.3908,-31.8302 -33.7675,1.0453 -58.214,21.7781 -82.3106,27.3936 -5.6116,-3.7567 -9.0776,-3.5524 -11.0895,-11.0895 21.4048,-4.9867 54.4729,-33.8815 75.6734,-46.3228 l 7.9105,-5.3954 c 0.8959,-0.9667 0.6719,-1.3361 2.8097,-3.8472 5.5133,-6.48 6.0556,-3.297 11.1995,-10.9795 15.4161,-8.154 35.5045,-27.3936 47.266,-41.4579 33.5082,-40.0786 57.1765,-69.7554 74.0073,-127.8358 17.4712,-60.3006 6.3503,-129.0107 -23.6094,-181.2281 -10.3115,-17.9782 -4.2402,-15.5378 -28.1993,-44.9985 -11.9344,-14.6773 -20.1631,-24.301 -33.4178,-37.5558 -92.9522,-92.9483 -186.6589,-129.4862 -300.9335,-173.7382 -9.663,-3.7449 -19.6915,-5.8709 -27.8966,-9.8084 2.2988,-8.6138 7.9615,-13.463 8.8732,-24.3993 34.0426,0 34.0662,-1.6386 61.1219,-5.47 l 33.3667,3.9611 c 7.4192,4.4562 19.0471,22.8431 37.0568,31.8813 43.9061,22.0297 54.1782,-13.8049 58.2768,-17.9939 6.8141,-6.9594 14.6066,-4.0358 22.5759,-21.8489 6.3857,-14.2726 -0.6877,-24.6272 -6.1185,-34.8915 8.2877,-12.3784 19.6012,-14.0918 20.1435,-35.5281 0.448,-17.876 -10.8852,-30.0422 -24.58,-33.2331 1.4854,-17.85244 1.1396,-40.00394 -31.174,-42.21244 -25.7354,-1.7605 -44.2244,15.1999 -57.5499,22.2497 -14.5909,-21.7939 -35.3355,-34.522 -59.334,-14.972 -8.6295,7.0302 -14.7244,16.9093 -13.8874,32.56514 0.8174,15.196 8.8968,25.9476 8.8968,40.0786 -8.3152,0 -18.218,0.4952 -26.3327,-0.2868 -22.8117,-2.1889 -16.9172,-1.7252 -20.0688,-6.5469 l -13.4866,-39.74854 c 34.1448,-18.0646 69.4371,-56.0802 91.345,-90.5354 14.1232,-22.2105 11.8322,-4.8414 41.8155,-20.2928 26.4388,-13.6241 41.9531,-39.0923 54.6616,-67.3308 20.2142,-44.9121 0.7152,-59.3575 0.7152,-105.755 9.7338,0 26.2344,1.9844 36.4476,3.5367 28.1167,4.2754 79.2534,-8.7514 105.2285,-19.3418 19.1453,-7.8083 36.0821,-18.0529 51.6043,-30.4667 30.8164,-24.6468 58.7838,-52.4924 82.1102,-84.2441 14.7952,-20.1434 60.6976,-92.7675 40.2869,-116.3965 -22.1122,-25.6018 -45.1911,7.4231 -51.7261,11.7968 0,-9.7966 1.7055,-12.3548 3.4817,-20.9136 2.5307,-12.1663 9.2425,-58.2651 6.7472,-66.8868 -3.5249,-12.1859 -17.263,-21.1534 -30.5571,-17.0233 -13.8677,4.3069 -18.548,15.3886 -21.8174,29.4096 -0.2948,-0.4676 -0.6091,-1.8155 -0.7074,-1.5051 -1.45,4.6095 -1.116,-2.5425 -1.3203,-3.1162 -4.0869,-11.3331 -4.5034,-22.8274 -22.9375,-24.2146 z"
       style="fill:#ffffff;fill-rule:evenodd"
       id="path2" />
    <g
       id="Layer1001"
       transform="translate(20.362131,305.43196)">
      <path
         d="m 1218.8444,171.4362 v -1.2457 c -52.123,-8.6059 -114.4553,-37.316 -169.722,22.5091 -5.867,6.3504 -8.1894,13.5377 -14.6537,18.9253 -31.6416,-53.9464 -87.6,-88.4449 -152.3805,-95.6873 -7.3681,-0.8252 -35.0958,-1.4461 -39.3988,-3.0887 -0.0471,-0.0196 -21.6956,-21.0983 -43.3598,-1.3086 -7.6629,6.9988 -3.2459,6.0989 -5.9692,13.3766 -3.7096,9.9067 -14.8266,10.948 -32.345,30.3016 -12.4688,13.7695 -9.9106,5.3837 -29.8301,34.4789 -24.5211,35.8188 -38.6403,77.654 -36.9231,131.844 -8.602,7.6904 -37.375,23.295 -49.384,30.3056 -39.4027,22.9963 -114.0899,73.6143 -114.1134,125.9024 -0.0236,47.0066 36.0232,74.357 76.3258,83.7764 23.8726,5.5801 49.8045,6.0831 75.1351,5.757 26.2265,-0.338 23.5151,18.096 64.3364,14.8344 12.9443,35.8032 53.3491,81.9099 86.6254,103.8217 41.5719,27.3701 97.6325,38.2827 157.2808,35.4219 56.6971,-2.7154 105.8493,-19.2985 144.7294,-45.5801 29.6846,-20.0688 73.5004,-64.753 87.1795,-105.4014 48.999,3.6192 64.0417,-38.7621 79.3988,-71.7516 20.7015,-0.7899 31.0836,-4.2834 49.0815,-6.763 18.0725,-2.4914 5.4936,11.3371 43.4463,6.2403 13.801,35.2805 32.4787,74.0309 78.1845,70.282 12.4571,37.6933 54.3119,86.7787 86.7512,110.1562 37.933,27.3348 86.0321,47.2857 145.6451,50.8538 101.1573,6.0595 209.5884,-70.172 243.8315,-149.2525 45.5094,3.8432 69.1738,-28.8594 82.0631,-62.3008 10.8851,-28.2464 7.5685,-34.0741 1.5286,-61.3892 -3.4738,-15.695 -6.5232,-49.1522 -8.5509,-66.1401 46.9594,11.2035 72.0189,18.1786 123.5917,6.5625 91.9659,-20.7132 192.8796,-129.2033 205.1637,-216.5125 -21.2477,9.7613 -47.6825,64.6351 -96.0213,75.9525 14.9721,-27.6766 23.7666,-28.3053 35.6539,-73.7244 7.3917,-28.2464 13.2665,-67.4172 13.6398,-98.1275 -8.7749,11.4589 -25.9043,60.725 -33.4493,78.1806 -9.6944,22.4344 -29.944,56.5164 -44.4523,66.7453 8.5313,-23.7352 19.9981,-31.8421 21.9943,-64.2854 1.6937,-27.5705 -2.177,-56.6028 -2.4167,-84.3855 h -2.9394 c -11.2585,85.1047 -25.2952,101.5071 -109.61,113.3275 -44.9475,6.3032 -133.0544,21.3145 -154.2785,65.3699 -16.2059,-3.6782 -30.2545,-28.6787 -55.31,-51.1485 -65.2402,-58.5205 -162.2164,-63.0239 -244.5192,-38.1845 -24.8551,7.5017 -54.304,24.3482 -78.2278,25.8179 -29.7357,1.8234 -57.6913,7.9733 -82.4325,19.7269 -48.7592,23.1614 -75.9053,55.3178 -97.4359,108.5687 -49.498,-17.7307 -41.9177,1.4107 -58.7681,-0.6759 -3.3834,-0.4205 -22.6388,-8.9243 -28.9301,-10.7594 -12.6339,-3.6939 -19.2082,-2.126 -26.7453,-10.9952 -31.3076,-36.8328 -52.4217,-41.175 -112.1172,-31.3391 4.7038,-68.6983 72.1761,-43.8 104.1753,-43.9375 -17.3416,-10.8459 -39.9764,-22.1594 -61.8096,-27.7945 -42.8294,-11.062 -57.1333,2.1495 -77.3397,4.0515 -2.5424,-6.5429 -0.947,-7.49 -4.857,-13.8442 -2.5464,21.8607 2.3696,15.2706 -15.2982,24.7529 -6.3896,3.4306 -20.4617,10.9952 -22.8352,14.2686 -0.7388,-7.6982 4.9553,-21.9511 8.323,-28.769 15.7186,-31.8146 51.8794,-26.1559 92.3391,-27.7199 z"
         style="fill:#000200;fill-rule:evenodd;stroke:#000200;stroke-width:0.216;stroke-linecap:butt;stroke-linejoin:miter;stroke-dasharray:none"
         id="path4" />
      <path
         d="m 1109.0069,900.2241 7.0223,14.2214 -15.0427,8.1698 c 4.0475,13.6438 32.9973,40.7741 -21.6328,50.6926 5.8002,14.4494 10.0953,23.1496 10.0403,40.8056 11.8047,1.0374 27.4683,5.1086 36.9113,5.085 6.3542,-0.016 12.119,-1.2693 17.8996,1.2575 17.3101,7.5567 -9.6041,6.2049 30.0737,14.8777 6.4485,23.684 12.9325,14.4965 25.2362,34.1762 7.9222,12.6732 13.2627,27.7906 12.5199,46.1971 -2.7822,68.9616 -126.5272,-10.8183 -148.6158,-32.1092 -8.2091,-7.9144 -21.9354,-19.4126 -24.0456,-34.6007 -3.6153,-26.0065 13.1762,-30.1405 24.6115,-35.6813 l -11.9423,-36.2394 -38.9665,0.6681 -8.2523,-13.2823 c -11.3292,2.3735 -9.4822,1.289 -12.2644,12.3274 l -47.6236,-0.896 c -9.3408,10.9402 -7.7611,23.244 -7.3328,38.3417 11.7144,5.702 12.5357,1.847 18.7563,12.2999 3.9297,6.6057 6.5508,15.082 4.6095,24.5171 -8.0401,39.108 -170.7516,141.8568 -172.3471,62.3873 -1.0374,-51.7104 30.4903,-48.323 37.6658,-78.5775 32.3844,-5.6626 17.7346,-2.0709 25.1774,-10.6454 6.7394,-7.769 15.4357,-4.6292 24.7333,-4.9986 8.9242,-0.3576 23.8452,-4.1065 35.1862,-5.1439 -0.9392,-19.3418 2.4246,-26.2737 3.9139,-42.6604 -10.7398,-5.757 -18.5519,-1.4815 -27.3072,-12.1269 -0.2908,-0.3576 -0.8999,-0.7152 -1.1082,-1.6505 -0.2161,-0.9628 -0.6916,-1.1828 -1.0924,-1.7408 -0.8056,9.6866 -17.9782,11.5492 -37.2021,21.1455 -78.1885,39.0333 -183.9121,99.0392 -196.2709,198.943 l -77.5833,2.3735 -3.5799,20.391 79.3595,-1.2889 c 2.6643,132.7911 166.9556,213.8089 281.458,252.7008 135.7109,46.0909 312.0426,69.3427 472.526,62.4501 l -5.5683,29.7829 30.9854,-12.7753 3.2066,-17.5774 c 179.9549,-9.1875 494.147,-64.8747 600.2321,-224.0417 30.4392,-45.6706 22.5406,-67.3741 30.5256,-88.5392 l 78.0234,-1.6544 c -0.334,-7.9104 -0.8173,-14.6773 -4.4562,-20.9294 l -76.5498,0.9549 c -9.498,-82.68 -90.8813,-144.5054 -153.7519,-179.3104 -12.1937,-6.7551 -24.0377,-12.5238 -36.9467,-18.662 -7.3995,-3.517 -12.0798,-5.9416 -19.778,-8.9439 -9.6905,-3.7764 -13.2311,-4.5977 -18.8466,-10.335 l -1.4029,7.1324 -50.2329,16.7207 c 6.6726,13.6398 3.9415,13.4276 7.1402,27.5862 10.9717,1.1357 25.1852,5.0496 34.1645,5.0889 7.2817,0.031 11.5689,-1.8037 19.1296,1.2418 18.0647,7.2856 -10.3389,6.0634 30.0973,15.0466 4.7981,13.801 0.7859,7.6982 11.6357,18.9135 5.6823,5.8748 8.9557,8.1658 13.7656,15.1331 22.1319,32.07 25.8179,104.9888 -64.3207,59.9784 -31.7516,-15.8561 -119.4617,-61.1573 -89.612,-104.2106 4.6606,-6.7237 5.8081,-5.8552 13.2901,-9.3919 l 4.6449,-2.4796 c -1.5129,-34.6282 -28.1246,-17.8328 -63.0082,-17.1294 -18.937,0.3772 -39.6817,-3.8904 -55.9033,-3.2617 -2.7469,6.0439 -6.6019,10.2682 -7.0656,20.3911 l 6.2246,3.183 c 13.3923,6.2521 20.5993,17.8603 17.4438,34.3845 -2.3578,12.3745 -17.0823,27.0125 -24.5722,33.8383 -13.6359,12.4295 -50.3429,34.5496 -70.7732,44.7196 -13.3962,6.6647 -30.0815,14.5004 -47.3052,13.9463 -21.4717,-0.6877 -29.4489,-9.9302 -29.7908,-30.2033 -0.5069,-30.392 11.3292,-43.804 27.6098,-59.9942 10.1149,-10.056 6.3464,-5.4858 10.449,-18.265 4.2519,-0.7624 19.6561,-2.1574 21.4598,-5.1951 8.2012,-13.8206 11.3214,-10.6061 27.8338,-10.6651 9.2622,-0.031 23.0161,-3.9728 34.2234,-5.0456 3.2813,-15.0113 1.6819,-14.7009 7.38,-28.8045 -21.0434,-8.0204 -37.7523,-13.1407 -56.7679,-22.4698 -0.3183,-13.4394 24.2735,-47.8514 30.6749,-63.2754 l -115.2137,-12.7478 c -105.197,-7.3484 -201.3676,-5.698 -305.9045,7.1324 -18.9016,2.3185 -39.7171,7.0498 -57.8603,8.3466 z"
         style="fill:#e30016;fill-rule:evenodd"
         id="path6" />
      <path
         d="m 882.1594,398.4142 c 18.9763,-6.5546 42.4953,-16.5321 61.3616,-23.5544 -3.4306,-1.8351 -0.8606,-1.6622 -6.1027,-0.7859 l -19.4676,7.0813 c -55.6322,16.1666 -115.6224,9.6669 -132.575,97.9271 l -4.578,15.6636 c -13.0426,-11.5021 -16.4771,-27.0714 -18.2965,-48.7553 -17.1883,26.93 -14.3786,53.0583 -15.0781,89.1405 -13.7067,-16.6657 -17.8918,-42.6879 -30.1641,-61.4403 -12.6653,-19.3536 -45.2618,-31.4176 -50.0324,5.2658 -3.3402,25.6803 11.7261,54.7362 22.5248,68.9616 14.9641,19.7072 28.2975,30.557 62.3558,26.5055 13.6163,36.2669 51.3018,82.181 83.9062,104.3443 79.3595,53.9385 215.7619,45.8985 298.4891,-10.2564 28.2111,-19.1492 71.9718,-65.9947 84.3502,-106.262 28.938,4.7353 43.6625,-8.4566 54.6302,-23.0631 40.4872,-53.8993 23.6958,-105.6843 -16.7797,-87.7729 -24.4464,10.8183 -35.2726,33.2213 -41.1946,38.4242 -43.8786,-35.98 -17.2552,-49.4116 -43.9887,-57.7778 2.1456,7.4231 2.4246,16.3513 2.0749,25.5899 -14.2411,-5.6783 -44.3462,-30.7378 -54.7048,-41.7644 -19.1925,-20.4342 -19.3418,-46.4918 -31.9835,-63.5426 -11.6554,26.8789 -47.4703,55.5182 -81.6937,65.0162 -39.7839,11.0384 -72.9542,3.8393 -109.9755,-10.5472 -6.1814,-2.401 -9.0658,-3.2537 -13.0779,-8.3977 z"
         style="fill:#f4c893;fill-rule:evenodd"
         id="path8" />
      <path
         d="m 1551.9465,812.8481 c 0.8488,5.4975 2.0827,11.7378 3.4109,16.6185 2.2164,8.1501 -0.3026,7.1245 7.9104,8.9007 l 18.2651,1.2535 c 10.6219,-1.5168 23.3972,-10.1071 29.7672,-7.9457 3.7528,13.8913 1.6976,22.1593 -5.3601,32.0974 l -17.9546,33.7204 c -6.4014,15.424 -30.9932,49.836 -30.6749,63.2754 19.0156,9.3291 35.7245,14.4494 56.7679,22.4698 -5.6981,14.1036 -4.0987,13.7932 -7.38,28.8045 -11.2073,1.0728 -24.9612,5.0142 -34.2234,5.0456 -16.5124,0.059 -19.6326,-3.1555 -27.8338,10.6651 -1.8037,3.0377 -17.2079,4.4327 -21.4598,5.1951 -4.1026,12.7792 -0.3341,8.209 -10.449,18.265 -16.2806,16.1902 -28.1167,29.6022 -27.6098,59.9942 0.3419,20.2731 8.3191,29.5156 29.7908,30.2033 17.2237,0.5541 33.909,-7.2816 47.3052,-13.9463 20.4303,-10.17 57.1373,-32.2901 70.7732,-44.7196 7.4899,-6.8258 22.2144,-21.4638 24.5722,-33.8383 3.1555,-16.5242 -4.0515,-28.1324 -17.4438,-34.3845 l -6.2246,-3.183 c 0.4637,-10.1229 4.3187,-14.3472 7.0656,-20.3911 16.2216,-0.6287 36.9663,3.6389 55.9033,3.2617 34.8836,-0.7034 61.4953,-17.4988 63.0082,17.1294 l -4.6449,2.4796 c -7.482,3.5367 -8.6295,2.6682 -13.2901,9.3919 -29.8497,43.0533 57.8604,88.3545 89.612,104.2106 90.1386,45.0104 86.4526,-27.9084 64.3207,-59.9784 -4.8099,-6.9673 -8.0833,-9.2583 -13.7656,-15.1331 -10.8498,-11.2153 -6.8376,-5.1125 -11.6357,-18.9135 -40.4362,-8.9832 -12.0326,-7.761 -30.0973,-15.0466 -7.5607,-3.0455 -11.8479,-1.2104 -19.1296,-1.2418 -8.9793,-0.039 -23.1928,-3.9532 -34.1645,-5.0889 -3.1987,-14.1586 -0.4676,-13.9464 -7.1402,-27.5862 l 50.2329,-16.7207 1.4029,-7.1324 -30.9107,-50.2957 c -7.7886,-14.8541 -16.7836,-38.1177 -19.7898,-56.6696 l -3.8314,-30.3449 c 21.6328,0.896 50.449,13.3019 70.1248,12.5553 3.6192,-7.989 6.087,-21.9668 10.1424,-32.2311 19.1689,1.9688 34.9269,3.4581 54.7088,1.3793 9.3054,-0.9785 15.9112,-2.8058 24.3639,-4.6724 13.015,-2.8725 9.4665,1.8077 24.4543,2.739 21.397,1.3243 26.1086,11.1681 37.0645,22.5877 32.1014,33.4571 57.5735,12.512 36.1254,-5.03 -8.771,-7.1755 -10.8812,-7.93 -18.1433,-17.3298 27.9478,7.0499 28.0146,25.0516 51.51,9.333 3.7293,-31.2919 -29.2563,-27.7591 -50.2367,-37.6894 17.593,-10.1935 74.2705,-4.6566 61.9118,-34.7185 -8.9636,-21.8057 -59.3379,4.5466 -74.1527,9.494 12.6102,-24.3364 66.6038,-35.8621 49.0578,-53.2783 -15.2981,-9.6591 -37.371,2.7429 -47.6471,10.0285 -12.5513,8.8967 -17.7306,23.5111 -29.9872,33.795 -10.8655,-15.7029 0.8331,-32.2389 -15.7816,-47.6746 -23.9119,-4.747 -28.9616,10.1621 -22.9649,31.4255 5.5998,19.8723 12.7557,24.8355 1.0374,45.6587 -20.0019,4.9632 -62.906,4.5663 -79.7642,-4.4208 l -18.8624,-48.0952 c -6.928,-0.6208 -47.4664,13.9582 -61.0198,16.9605 -23.0121,5.0928 -45.9652,9.9302 -71.0364,9.6748 -25.5193,-0.2554 -77.1118,-10.7987 -98.1237,-22.4502 -8.0086,-4.4366 -17.4044,-11.3292 -25.7039,-13.2193 l -31.9442,56.3474 c -20.4421,-3.3835 -49.7181,-11.7812 -63.1379,-23.7038 0.5305,-21.4048 -0.1139,-22.6977 11.5375,-34.3884 36.5537,-36.6755 -4.5348,-66.2737 -24.6822,-20.1867 -4.0868,9.3526 -4.2322,9.1247 -8.7474,15.3493 -11.2153,-8.8378 -6.818,-27.3583 -20.1867,-45.7766 -24.6429,-33.9523 -54.2214,-28.7259 -41.7369,-4.9907 6.3896,12.1505 26.871,23.8334 29.9519,48.5549 -17.5695,-10.17 -30.6474,-41.0375 -63.1772,-38.3692 -23.0199,28.9851 9.1561,28.4586 42.0828,56.9958 -19.9942,3.3441 -47.7415,-8.9793 -57.3652,9.0893 -14.6537,27.5076 34.4749,17.4162 48.3427,17.7778 -10.1897,9.3015 -37.827,11.2781 -35.7757,24.7765 6.9437,15.4239 30.2938,10.0285 44.8178,3.3284 22.6938,-10.4726 18.9174,-13.8206 46.7197,-6.8062 14.8384,3.745 8.5549,-2.8215 22.0337,6.7551 5.8041,4.1222 12.1347,7.4428 19.8526,11.2821 14.2843,7.1126 29.2131,10.6965 46.4289,13.3922 z"
         style="fill:#000200;fill-rule:evenodd;stroke:#000200;stroke-width:0.216;stroke-linecap:butt;stroke-linejoin:miter;stroke-dasharray:none"
         id="path10" />
      <path
         d="m 916.929,858.3103 c -3.8157,15.9662 -9.5805,23.4601 -17.656,34.1566 -4.971,6.5861 -18.3554,22.1044 -21.0001,29.6768 l 9.05,3.3245 c 0.8292,12.0326 -5.8827,20.5246 -1.5325,30.4274 0.4008,0.558 0.8763,0.778 1.0924,1.7408 0.2083,0.9353 0.8174,1.2929 1.1082,1.6505 8.7553,10.6454 16.5674,6.3699 27.3072,12.1269 -1.4893,16.3867 -4.8531,23.3186 -3.9139,42.6604 -11.341,1.0374 -26.262,4.7863 -35.1862,5.1439 -9.2976,0.3694 -17.9939,-2.7704 -24.7333,4.9986 -7.4428,8.5745 7.207,4.9828 -25.1774,10.6454 -7.1755,30.2545 -38.7032,26.8671 -37.6658,78.5775 1.5955,79.4695 164.307,-23.2793 172.3471,-62.3873 1.9413,-9.4351 -0.6798,-17.9114 -4.6095,-24.5171 -6.2206,-10.4529 -7.0419,-6.5979 -18.7563,-12.2999 -0.4283,-15.0977 -2.008,-27.4015 7.3328,-38.3417 l 47.6236,0.896 c 2.7822,-11.0384 0.9352,-9.9539 12.2644,-12.3274 l 8.2523,13.2823 38.9665,-0.6681 11.9423,36.2394 c -11.4353,5.5408 -28.2268,9.6748 -24.6115,35.6813 2.1102,15.1881 15.8365,26.6863 24.0456,34.6007 22.0886,21.2909 145.8336,101.0708 148.6158,32.1092 0.7428,-18.4065 -4.5977,-33.5239 -12.5199,-46.1971 -12.3037,-19.6797 -18.7877,-10.4922 -25.2362,-34.1762 -39.6778,-8.6728 -12.7636,-7.321 -30.0737,-14.8777 -5.7806,-2.5268 -11.5454,-1.2732 -17.8996,-1.2575 -9.443,0.024 -25.1066,-4.0476 -36.9113,-5.085 0.055,-17.656 -4.2401,-26.3562 -10.0403,-40.8056 54.6301,-9.9185 25.6803,-37.0488 21.6328,-50.6926 l 15.0427,-8.1698 -7.0223,-14.2214 c -4.6291,-7.8947 -15.9544,-25.0556 -17.3848,-34.5025 -7.0263,-10.4018 -9.0068,-17.9153 -5.478,-31.8302 7.2542,-2.4521 13.019,5.8788 25.0516,7.4978 9.6473,1.2968 21.4874,-0.9235 31.1465,-1.8195 0.338,-0.5776 0.6327,-1.3675 0.8252,-1.8351 l 6.2128,-23.7705 2.46,-18.827 c 30.1837,-4.1969 42.1771,-8.4409 64.6665,-22.3677 10.0246,-6.2088 11.7143,-1.7604 24.7647,-6.3464 29.4253,-10.3468 70.7457,35.2216 86.6451,5.364 2.2439,-12.6692 -20.9804,-16.3513 -25.4406,-18.1 -6.9005,-2.7115 -6.0517,-2.511 -9.891,-6.7983 14.1193,-0.6641 58.3005,10.445 48.8968,-16.2413 -6.9594,-19.7426 -44.4955,-8.9636 -58.5755,-10.5315 6.1342,-5.1793 6.873,-7.2895 14.9641,-12.3981 6.5508,-4.1379 11.6436,-6.3975 18.7877,-10.0127 14.1861,-7.1835 24.191,-21.7704 7.5686,-34.306 -26.1008,-4.916 -48.7514,29.4332 -62.1319,37.8544 2.2556,-13.9895 10.8301,-26.6548 17.7503,-33.7675 43.4935,-44.7078 -19.5933,-49.0147 -39.1787,11.8951 -3.4385,10.6847 -3.7647,18.5912 -10.3193,24.0652 -7.1952,-9.7731 -8.8575,-18.4262 -16.6775,-29.5353 -8.6767,-12.3195 -26.5095,-13.8482 -31.2447,0.9863 -3.9769,12.461 7.7885,27.1461 13.0779,32.6712 16.1116,16.8386 9.887,10.3036 13.2626,36.0507 -18.6974,9.5687 -34.8129,18.5048 -60.788,22.0218 -4.7155,-20.4853 -18.4458,-33.1427 -29.6846,-54.0642 -0.2437,-0.4519 -0.6013,-1.0964 -0.8252,-1.5051 l -1.7409,-3.014 c -71.4216,40.8056 -121.1082,47.2305 -202.6447,27.9202 -23.13,-5.478 -43.6939,-15.9112 -63.916,-20.3635 5.6587,13.3058 -9.215,38.3692 -14.0171,53.8481 -20.9451,6.1617 -55.1488,8.268 -76.534,3.128 -10.508,-18.1982 -5.5055,-25.9632 0.3379,-43.8668 7.2777,-22.2969 2.9865,-38.0273 -22.7056,-33.2017 -14.5987,14.1507 -5.8434,28.6315 -14.2293,47.5214 -10.1031,-3.4424 -11.9894,-17.1805 -32.3804,-34.3374 -10.4411,-8.7867 -38.0509,-20.6385 -49.3526,-4.6802 2.9394,23.9434 39.0883,21.7153 52.0641,48.606 -25.6253,-7.3288 -42.0906,-24.1399 -72.3608,-14.2136 -13.522,41.2968 37.1117,23.6762 59.9706,39.7407 -21.2006,9.7377 -58.9057,9.2032 -48.5746,40.0589 21.4835,9.7299 28.9734,-7.1087 49.9971,-11.9933 -7.9379,13.129 -37.6972,24.3364 -21.9432,37.3868 13.0347,10.0442 32.6397,-7.989 38.546,-13.8953 8.7474,-8.7474 17.4123,-22.2379 34.0545,-23.5976 48.2641,-3.9414 -0.3537,-5.5094 47.596,1.1553 19.2671,2.6801 36.9821,1.8627 55.8759,-0.2082 4.633,9.5333 11.2584,24.1438 7.2659,34.3138 l 76.9781,-16.0566 z"
         style="fill:#000200;fill-rule:evenodd;stroke:#000200;stroke-width:0.216;stroke-linecap:butt;stroke-linejoin:miter;stroke-dasharray:none"
         id="path12" />
      <path
         d="m 1040.5168,224.9315 c -18.096,3.8275 -91.5336,5.5801 -131.0659,12.347 -69.1071,11.8361 -205.1676,83.2734 -218.4027,142.9728 -3.5485,15.9977 -1.7487,34.1409 0.7938,50.2054 2.9197,18.4065 0.1061,13.6752 31.6337,22.9689 -6.2049,2.9826 -5.2539,0.8684 -11.3724,2.9158 14.8462,7.0891 16.2295,25.5781 26.258,40.9156 2.739,-20.391 4.5505,-30.6356 12.4727,-48.2052 4.4641,-9.9027 17.1137,-31.787 22.7174,-38.5146 0.4126,21.7704 -5.0064,44.9121 3.0651,63.7706 10.1228,-19.1375 11.6554,-67.9085 76.9035,-86.7748 33.2764,-9.6198 65.5428,-9.6473 92.7596,-29.1659 14.0407,-10.0678 10.897,-14.2176 21.9668,-22.0926 -5.5368,44.5545 -25.865,52.2684 -65.8021,62.8471 30.8871,24.2971 128.5274,26.2147 173.4277,-44.2441 4.6842,-7.3563 8.3977,-16.3906 13.2351,-21.786 14.6301,20.8743 16.0487,66.3602 48.1344,88.8693 8.1148,5.694 18.5834,15.4514 27.7984,19.4007 l -7.9025,-22.9964 c 54.1664,11.9265 25.8729,34.4867 56.1823,57.4949 16.5989,-16.5871 25.4367,-29.5825 56.8937,-37.3593 1.5797,-65.0123 -11.2389,-56.0252 -22.8353,-93.4513 -18.434,-59.5068 21.2791,-49.5608 56.6264,-35.0722 -2.3263,-4.7824 -12.4413,-14.6694 -17.7463,-19.2003 -33.3707,-28.4743 -72.7027,-11.8872 -97.0784,-8.826 -0.082,-61.8372 30.058,-61.7389 67.9164,-67.3976 -37.4261,-21.1573 -84.4484,-8.9125 -118.829,11.9658 l -32.2861,20.1316 c 3.128,-17.8446 8.099,-37.4103 15.809,-52.0169 11.3292,-21.4599 16.3159,-18.2297 40.9942,-27.7041 -41.5955,-5.2697 -76.149,0.0786 -103.5033,29.4292 -17.0155,18.2533 -11.9619,17.9822 -18.7642,28.5726 z"
         style="fill:#000200;fill-rule:evenodd"
         id="path14" />
      <path
         d="m 408.9378,1715.2436 c -0.0864,53.4001 8.8142,156.4555 11.2781,223.303 0.2869,7.8161 0.1651,69.2642 4.8414,74.0859 8.3151,8.1815 67.5705,8.5863 82.9158,8.8535 27.1658,0.4755 57.7543,-1.6858 81.7173,-10.0796 70.7143,-24.7686 55.0153,-89.8517 19.9234,-105.8375 6.3857,-6.8219 10.5708,-6.3504 18.2808,-13.4866 45.5487,-42.1928 42.8136,-118.8016 -1.4029,-154.1449 -43.4345,-34.7186 -155.2334,-36.6363 -217.5539,-22.6938 z"
         style="fill:#009634;fill-rule:evenodd;stroke:#009634;stroke-width:0.216;stroke-linecap:butt;stroke-linejoin:miter;stroke-dasharray:none"
         id="path16" />
      <path
         d="m 1187.3722,1762.989 c 11.8872,-15.2943 24.022,-37.21 46.4289,-46.0399 -45.8552,73.3078 -47.2423,64.6979 -44.2951,147.9753 2.3617,66.7492 -5.8748,90.9834 54.3236,139.5422 -19.9862,-4.7352 -40.4047,-25.9947 -49.5255,-38.7504 0.032,21.4481 23.4915,33.8501 41.3558,41.3912 26.0261,10.9873 44.134,10.6061 73.5868,5.7019 -3.2931,8.6806 -2.3303,6.366 -10.3822,11.2978 3.3874,21.0905 22.8117,38.8211 31.0601,50.5629 11.5375,-1.2928 22.4776,-6.7472 31.1936,-12.795 3.8118,-2.6485 7.6746,-5.7491 11.396,-8.5313 1.1514,-0.8605 6.1971,-4.7431 6.2678,-4.8059 0.4795,-0.4284 1.8548,-1.7016 2.2753,-2.1378 2.7979,-2.9118 1.23,-0.7269 2.9394,-3.6545 -32.3922,-27.8535 -12.8068,-6.1657 -45.6862,-42.1457 7.875,-7.5646 26.3444,-11.8833 44.6999,-38.8447 11.9265,-17.5184 20.2534,-33.6732 26.8474,-57.4909 25.3463,-91.5572 -5.0575,-204.6292 -118.8919,-208.3192 -35.5909,-1.1514 -69.7633,11.9816 -92.4177,34.7972 -8.83,8.8928 -13.1723,13.856 -11.176,32.2468 z"
         style="fill:#009634;fill-rule:evenodd;stroke:#009634;stroke-width:0.216;stroke-linecap:butt;stroke-linejoin:miter;stroke-dasharray:none"
         id="path18" />
      <path
         d="m 1810.9858,1727.901 11.8872,4.4288 c -1.454,24.9258 -17.6481,86.8926 -21.4441,117.8976 -4.5034,36.7974 7.3917,93.3688 5.9062,133.5299 l -14.0485,-81.898 c -14.3747,15.3296 -5.6587,39.6227 -1.7369,66.2226 2.4953,16.9133 5.4897,52.7793 10.783,66.7846 104.1006,7.8986 235.033,-22.513 234.8915,-151.8225 -0.067,-62.4187 -25.3109,-109.4449 -60.7447,-133.2941 -49.608,-33.3864 -98.7759,-30.0226 -165.4937,-21.8489 z"
         style="fill:#e30016;fill-rule:evenodd;stroke:#e30016;stroke-width:0.216;stroke-linecap:butt;stroke-linejoin:miter;stroke-dasharray:none"
         id="path20" />
      <path
         d="m 603.7586,1718.906 c 16.4103,14.3354 70.3567,29.2799 59.3182,113.2253 -6.4485,49.0383 -19.4282,25.0595 -16.8621,68.6512 1.2142,20.619 3.5799,70.8832 -0.1454,89.3016 l -2.6801,-24.2853 -5.8276,11.5296 c -1.7841,3.7567 -4.1301,7.1952 -4.8335,10.5472 -1.3754,6.5468 2.4089,21.6013 3.4581,29.3546 l 109.7633,-12.1781 -4.9632,-65.2087 c 8.9911,16.1273 29.4332,43.0455 42.8844,57.5813 5.4229,5.8591 10.9205,12.8185 15.8404,19.0431 l 76.9821,-44.7038 c -2.0749,-3.8629 0.2161,-0.6052 -2.9787,-4.0829 -4.8138,-5.2383 -47.8082,-35.7482 -63.6998,-59.9195 75.8346,-44.0476 60.8508,-141.6289 17.0076,-177.4871 -25.641,-20.9726 -63.9199,-29.5746 -106.1126,-28.3839 -22.517,0.6327 -101.7547,8.6649 -117.1511,17.0154 z"
         style="fill:#008bd0;fill-rule:evenodd;stroke:#008bd0;stroke-width:0.216;stroke-linecap:butt;stroke-linejoin:miter;stroke-dasharray:none"
         id="path22" />
      <path
         d="m 2005.1739,1769.9877 c 6.8612,-3.0848 13.7342,-16.2452 20.0059,-22.1947 6.4368,-6.1028 15.4711,-12.9915 24.529,-17.1334 -52.0052,78.271 -29.0677,34.6164 -13.522,105.6333 7.3603,33.6103 8.2209,72.9934 -5.5133,105.5507 -4.6684,11.0737 -10.9873,19.0824 -14.6105,27.7041 6.3543,15.1567 32.5769,42.4992 44.0279,50.0756 -13.1486,-4.2676 -20.7407,-9.7298 -30.2426,-17.0979 -12.5042,-9.7024 -10.7712,-12.1073 -16.9212,-18.8703 -1.7251,-1.898 -1.1946,-1.5325 -2.9158,-2.5739 -8.7828,-5.3168 -2.9158,8.2837 3.8039,15.3178 69.838,73.1389 214.4691,27.9714 218.9725,-133.2351 3.5603,-127.6472 -96.8425,-174.0408 -175.5694,-145.4996 -19.106,6.924 -37.6893,20.1984 -49.6119,34.7617 -6.9752,8.5235 -11.0345,9.05 -2.4325,17.5617 z"
         style="fill:#009634;fill-rule:evenodd;stroke:#009634;stroke-width:0.216;stroke-linecap:butt;stroke-linejoin:miter;stroke-dasharray:none"
         id="path24" />
      <path
         d="m 1110.5473,1702.5193 7.2974,67.0283 c -12.0326,-6.8534 -22.6466,-16.6775 -33.6772,-25.7393 -11.9972,-9.8517 -21.7467,-17.9979 -33.9326,-28.1482 -14.0603,-11.7104 -26.1283,-6.7708 -49.1443,-4.9985 -18.9646,1.4579 -39.108,2.1849 -57.6678,4.5191 0.5383,7.2699 1.3479,16.3985 9.5687,9.7613 3.5524,-2.8687 -0.0747,-5.6194 14.1232,-5.8395 1.1003,2.8412 0.7191,3.1948 1.285,4.6685 3.352,8.7631 1.1671,6.2874 23.2715,9.7612 2.7271,21.625 -15.2589,76.8799 -15.8091,102.851 -0.7663,36.4634 6.8691,76.4005 6.3346,113.634 l -11.4313,-86.6411 c -8.6414,38.5893 7.8357,106.1951 11.3017,148.4469 l 62.6427,-4.5938 -5.5762,-101.57 c 10.9834,3.745 64.8983,37.1235 77.434,45.2933 l 74.6714,48.4724 c -2.2281,-49.6867 -4.7392,-99.723 -6.763,-149.5118 -2.0395,-50.1857 -0.5894,-102.2144 -3.5013,-151.8971 z"
         style="fill:#e30016;fill-rule:evenodd;stroke:#e30016;stroke-width:0.216;stroke-linecap:butt;stroke-linejoin:miter;stroke-dasharray:none"
         id="path26" />
      <path
         d="m 1523.2285,1727.5749 c 6.2639,81.6976 21.1534,164.9671 22.7881,249.3409 -60.9294,18.7091 -56.5832,-42.9944 -60.1002,-91.738 -3.7017,-51.3292 -5.753,-103.5701 -6.4211,-155.1862 l -90.783,5.1007 c 10.5669,20.1474 21.3302,30.2427 28.3604,59.4872 9.0814,37.7601 5.4897,83.0613 -5.8985,120.0236 -5.2028,16.8937 -11.6514,17.4792 -4.912,37.1157 7.8161,22.7567 18.2611,46.8612 32.4983,56.9919 -10.4215,-3.4581 -19.6641,-14.7323 -25.9594,-23.4955 -14.1075,-19.6326 -9.8163,-27.7002 -20.1591,-32.3214 -5.1047,18.2375 14.2135,43.8471 27.708,55.754 34.6517,30.5727 96.0959,30.392 141.0905,23.0553 26.5646,-4.3305 45.254,-13.577 67.4841,-19.2435 -3.741,-97.0077 -9.2936,-192.6006 -9.6591,-290.0994 z"
         style="fill:#008bd0;fill-rule:evenodd;stroke:#008bd0;stroke-width:0.216;stroke-linecap:butt;stroke-linejoin:miter;stroke-dasharray:none"
         id="path28" />
      <path
         d="m 2198.2932,270.1147 c 19.6719,-48.547 47.7964,-60.615 44.8688,-129.4116 -4.9199,5.5173 -6.2285,11.8126 -10.111,18.3516 -26.5841,44.7745 -89.8988,40.6484 -143.6998,51.4903 -60.9726,12.2881 -114.306,41.898 -122.3775,102.1004 10.6061,5.8828 23.6565,5.5527 28.2896,16.7601 6.8612,16.591 -6.9358,21.6013 -15.6793,28.5018 56.2609,46.3503 161.6112,48.6806 228.0146,8.5509 38.381,-23.1928 120.7231,-103.0475 132.1152,-162.0081 -17.1176,17.9861 -23.9788,28.3643 -45.9927,44.0829 -15.2589,10.897 -44.5113,23.6094 -65.979,26.0733 38.1923,-35.811 63.3107,-77.5715 65.7825,-135.3611 -7.3367,10.1739 -12.0562,26.3091 -17.711,38.1688 -14.9759,31.4098 -50.2682,76.3416 -77.5204,92.7007 z"
         style="fill:#ffec00;fill-rule:evenodd;stroke:#ffec00;stroke-width:0.216;stroke-linecap:butt;stroke-linejoin:miter;stroke-dasharray:none"
         id="path30" />
      <path
         d="m 1567.8537,830.9716 c 11.2782,0.8253 15.9388,2.2282 26.2502,-2.232 8.8221,-3.8157 12.8343,-9.109 21.5974,-7.0773 22.1672,33.8029 -41.1003,106.647 -49.8753,134.7913 17.8879,5.6233 35.422,14.4965 56.6107,20.6896 57.5106,16.7993 169.8125,5.3837 199.9648,-16.8189 -4.4406,-9.6905 -11.8873,-17.7306 -18.7092,-29.1974 -16.2845,-27.3661 -34.2352,-71.7163 -34.2666,-103.9749 -0.024,-23.5072 16.3317,-10.0521 67.0597,-0.5894 -19.9824,-46.7748 -33.3786,-37.7444 -7.0263,-98.8467 -17.0233,3.3913 -36.1411,11.8243 -56.4613,15.9387 -58.9567,11.9304 -100.9098,10.2878 -157.0764,-10.6966 -10.2643,-3.8353 -15.7619,-8.991 -26.1834,-13.0228 5.2422,35.9013 13.184,57.5773 -7.9222,89.8202 -4.358,6.6608 -12.233,15.082 -13.9621,21.2162 z"
         style="fill:#e30016;fill-rule:evenodd"
         id="path32" />
      <path
         d="m 1636.9726,1722.0065 -5.4269,68.7455 c -3.9808,28.8516 -5.8827,44.5702 -5.1007,74.5457 0.6484,24.6625 1.6937,49.3644 2.9747,74.0309 0.6642,12.8107 1.2929,25.6174 1.9531,38.4281 l 1.4382,27.3544 c 1.5483,9.8713 -0.9784,3.8668 3.2735,8.5824 l 131.6475,16.2766 19.5815,-56.8425 c -27.4526,1.9452 -49.777,0.1375 -76.5498,-2.2596 l 5.5841,-42.4875 c 22.9885,1.788 37.6422,5.8631 58.7327,10.2564 l 16.8897,-52.4806 -68.215,-6.7826 6.7472,-36.4004 c 24.2107,1.6779 43.5014,9.4508 66.2227,12.7675 l 22.0886,-120.9 -203.1713,-24.0967 c 2.904,10.7123 -5.199,7.1088 21.3302,11.2624 z"
         style="fill:#ffec00;fill-rule:evenodd;stroke:#ffec00;stroke-width:0.216;stroke-linecap:butt;stroke-linejoin:miter;stroke-dasharray:none"
         id="path34" />
      <path
         d="m 1178.0471,521.0982 c -41.3282,5.7727 -99.5697,47.3171 -181.5385,3.8472 -39.5364,-20.9726 -31.5198,-17.8957 -65.869,-44.9828 L 885.083,441.1768 c -7.5174,-7.5096 -6.6529,-7.7139 -14.8109,-12.512 6.5822,49.8909 -10.834,72.2507 20.6858,159.666 43.1241,119.5992 149.5668,135.0939 215.703,50.1818 14.0171,-17.9939 24.9691,-34.0191 37.3239,-55.9073 z"
         style="fill:#000200;fill-rule:evenodd"
         id="path36" />
      <path
         d="m 868.4606,729.9715 c 5.9495,17.8642 17.263,28.1442 13.4433,52.0837 -3.348,20.9923 -15.0152,31.2762 -20.7014,46.594 l 66.5763,-14.1114 c -0.0157,21.6249 0.0314,44.2048 -8.8378,62.0651 l -28.4547,40.9156 c 31.8342,23.409 117.0685,26.6077 167.659,11.8754 l 45.4072,-19.0195 c 0.2633,-0.2044 0.8292,-0.6916 1.2143,-1.0689 -5.9534,-12.9089 -14.524,-24.7529 -20.9176,-39.1001 -10.9795,-24.6272 -6.3935,-24.3639 -3.5367,-50.056 22.7292,6.7158 17.6049,14.7951 48.885,12.9521 -1.7644,-6.0084 -9.6355,-14.359 -13.9346,-20.9333 -22.9178,-35.0604 -11.3724,-54.7598 -8.2248,-90.3979 -10.0285,3.8236 -14.4336,8.6256 -24.3953,12.512 -10.0639,3.9297 -17.3416,5.7806 -26.9653,8.5392 -48.2916,13.8442 -80.1455,13.4119 -129.3291,3.0298 -20.7368,-4.3737 -39.5481,-11.9934 -57.8878,-15.8798 z"
         style="fill:#008bd0;fill-rule:evenodd;stroke:#008bd0;stroke-width:0.216;stroke-linecap:butt;stroke-linejoin:miter;stroke-dasharray:none"
         id="path38" />
      <path
         d="m 2208.915,1759.1379 c 12.3353,-9.164 17.8171,-25.8532 43.5485,-31.4884 -2.5739,2.6722 0.1965,0.169 -3.8549,3.7253 -0.047,0.043 -3.6232,2.9866 -3.8236,3.1438 l -19.4361,20.4146 c -12.5671,17.8406 -4.8728,19.0195 1.7055,37.1117 13.408,36.8798 8.6059,58.4655 8.7985,97.6521 11.4235,10.3153 40.5737,30.0304 39.7839,48.6492 -1.3754,32.286 -36.762,19.9783 -59.9117,15.3217 -11.2741,34.5378 -37.7443,37.0292 -45.7137,66.5567 44.751,19.7779 153.638,44.7667 189.5747,-20.0413 10.7201,-19.3379 14.9445,-46.2796 4.2637,-67.7041 -10.6494,-21.3577 -25.0791,-31.5827 -39.3634,-44.9082 -14.9288,-13.9267 -33.2803,-24.9416 -43.5996,-42.9119 -13.8481,-24.1203 1.2182,-51.2192 30.2623,-46.2717 25.6175,4.3619 41.0885,22.7212 58.8231,29.2641 l -1.2929,-92.4767 c -28.3289,-8.488 -60.1709,-18.8938 -92.9404,-17.4359 -28.549,1.2732 -74.8914,20.3517 -66.8239,41.399 z"
         style="fill:#008bd0;fill-rule:evenodd;stroke:#008bd0;stroke-width:0.216;stroke-linecap:butt;stroke-linejoin:miter;stroke-dasharray:none"
         id="path40" />
      <path
         d="m 1219.9766,172.6788 c -40.4598,1.564 -76.6205,-4.0947 -92.3392,27.7198 -3.3677,6.818 -9.0618,21.0709 -8.323,28.7691 2.3735,-3.2734 16.4456,-10.838 22.8353,-14.2686 17.6677,-9.4823 12.7517,-2.8923 15.2981,-24.753 3.91,6.3543 2.3146,7.3013 4.8571,13.8442 20.2063,-1.9019 34.5103,-15.1134 77.3396,-4.0515 21.8332,5.6352 44.4681,16.9487 61.8097,27.7945 -31.9992,0.1376 -99.4715,-24.7608 -104.1753,43.9376 59.6954,-9.836 80.8095,-5.4937 112.1171,31.339 7.5371,8.8693 14.1114,7.3013 26.7453,10.9952 6.2914,1.8352 25.5467,10.339 28.9302,10.7594 16.8503,2.0867 9.27,-17.0547 58.768,0.6759 21.5306,-53.2508 48.6767,-85.4072 97.436,-108.5686 24.7411,-11.7537 52.6967,-17.9036 82.4325,-19.7269 23.9238,-1.4697 53.3726,-18.3162 78.2277,-25.8179 82.3029,-24.8394 179.279,-20.336 244.5193,38.1845 25.0555,22.4698 39.104,47.4703 55.3099,51.1485 21.2241,-44.0555 109.3311,-59.0668 154.2785,-65.3699 84.3148,-11.8205 98.3516,-28.2229 109.61,-113.3275 -17.8445,0.3418 -22.8667,10.0717 -25.9554,25.9907 -17.4319,89.9068 -71.3508,47.9026 -176.5243,85.2108 -17.0115,6.032 -37.8072,16.5596 -52.3077,27.5391 -6.4446,4.8806 -8.8181,8.268 -14.5279,12.0915 -17.4556,-32.9895 -79.4892,-73.5514 -120.6799,-85.5998 -76.2865,-22.3165 -146.3288,-10.8301 -216.4929,16.8111 -6.5075,2.5622 -10.3389,4.3384 -16.8936,7.5096 -8.5077,4.1144 -10.9087,3.4974 -21.6799,4.9357 -69.8537,9.325 -124.5467,24.9415 -168.5864,88.7081 -6.484,9.3841 -16.4221,22.8589 -19.0589,34.1763 -32.0267,-7.4624 -39.0097,3.4502 -50.4097,1.7408 -8.0401,-1.2064 -35.2647,-10.8026 -41.1907,-16.6067 -10.4804,-10.2682 -17.8996,-18.8152 -31.8184,-25.8493 -14.08,-7.1166 -24.7726,-12.5199 -45.1518,-12.5199 v -2.2164 c 15.2903,0 40.5658,5.1125 50.7908,-0.22 12.2959,-6.4172 17.8407,-25.4839 7.3563,-37.9605 -4.2322,-5.0418 -30.0265,-16.9762 -37.874,-19.8016 -6.6097,-2.3774 -13.8639,-4.9003 -22.0022,-6.8337 -11.9304,-2.8372 -17.1569,-2.5307 -22.6702,-6.3896 z"
         style="fill:#ffffff;fill-rule:evenodd"
         id="path42" />
      <path
         d="m 856.2118,1760.191 c 4.0751,-8.0361 4.916,-23.6172 5.5526,-33.4453 l 18.6109,0.613 c -2.4325,14.4612 -6.2521,29.4214 -9.4862,44.2323 -5.0103,22.9414 -2.9472,29.0127 -4.0279,51.6593 -0.9195,19.3261 -5.6351,27.8613 -11.6829,43.2577 -5.2618,13.4002 -4.4091,34.0152 -10.1621,46.1146 -0.0786,-5.529 0.5227,-9.2151 0.6523,-14.2097 0.0236,-0.9077 0.0197,-5.9023 -0.1021,-6.5428 -1.3125,-7.0224 0.2593,-3.4267 -3.4149,-7.7022 -3.855,11.062 -4.7785,31.4962 -5.6155,45.4544 3.6742,12.1112 42.8372,32.2507 45.8002,42.1417 -4.3148,7.8632 -43.3167,25.2127 -52.5671,32.349 l -0.6877,12.0011 c 8.5313,4.362 97.0076,16.0016 107.8378,14.1783 l 51.0384,-293.3374 c -29.0873,-3.5053 -111.119,-18.3869 -133.408,-16.2413 -1.5365,16.1548 -5.5762,30.84 1.6622,39.4773 z"
         style="fill:#ffe900;fill-rule:evenodd"
         id="path44" />
      <path
         d="m 495.3039,1372.8326 c 37.1707,49.6002 51.2546,60.446 97.2316,97.4045 18.3279,14.7284 58.0961,39.163 79.8507,50.9677 30.1759,16.371 20.0059,13.6752 86.0006,-22.1122 11.8519,-6.425 32.1172,-16.1313 41.6662,-24.1753 -4.912,-4.468 -43.7096,-23.5387 -52.7478,-28.6983 -21.4009,-12.2252 -78.4596,-49.8477 -95.2668,-68.8634 l -20.7132,-21.2869 c -5.4976,-7.0577 -11.565,-15.9938 -19.1021,-23.1968 -13.074,2.0395 -110.7339,34.3059 -116.9192,39.9607 z"
         style="fill:#009634;fill-rule:evenodd;stroke:#009634;stroke-width:0.216;stroke-linecap:butt;stroke-linejoin:miter;stroke-dasharray:none"
         id="path46" />
      <path
         d="m 571.1542,1198.7486 3.5799,-20.391 c 2.5661,-16.9447 9.2033,-28.9262 13.3294,-43.2734 l -94.6773,-32.2115 c -8.9675,9.0343 -23.6644,39.5757 -28.9694,53.5888 -17.5067,46.2403 -20.8115,93.3845 -6.3425,141.9747 4.637,15.5772 17.0587,46.2443 25.924,56.5911 l 117.2335,-39.3163 c -18.4419,-34.4788 -32.0739,-66.2305 -30.0776,-116.9624 z"
         style="fill:#008bd0;fill-rule:evenodd;stroke:#008bd0;stroke-width:0.216;stroke-linecap:butt;stroke-linejoin:miter;stroke-dasharray:none"
         id="path48" />
      <path
         d="m 895.5163,1234.0448 c -130.4726,11.0267 -183.6095,87.0106 -65.9122,87.0027 123.3717,-0.012 107.5705,-80.0904 222.2773,-26.3366 34.3846,16.1116 63.8177,32.3804 113.8894,17.3652 14.9092,-4.468 40.0079,-18.1236 40.393,-30.3055 0.4519,-14.4376 -30.7771,-23.5033 -44.9749,-27.547 -69.4686,-19.7858 -190.8047,-26.5016 -265.6726,-20.1788 z"
         style="fill:#000200;fill-rule:evenodd;stroke:#000200;stroke-width:0.216;stroke-linecap:butt;stroke-linejoin:miter;stroke-dasharray:none"
         id="path50" />
      <path
         d="m 1588.9089,1234.7443 c -47.3131,4.6802 -73.7244,13.3294 -107.6216,35.6813 -44.7078,29.4764 0.3025,53.2666 57.8406,50.3665 48.5471,-2.4443 70.6632,-15.1528 106.9733,-34.0584 40.4558,-21.063 75.4337,-7.1441 111.2644,10.2132 19.5029,9.4469 25.6371,15.7304 51.6829,19.0549 54.2214,6.9241 106.6156,-20.5757 95.2117,-41.3832 -5.0457,-9.2072 -36.4201,-18.7091 -51.1209,-22.4305 -71.9089,-18.214 -188.3683,-24.9494 -264.2304,-17.4438 z"
         style="fill:#000200;fill-rule:evenodd;stroke:#000200;stroke-width:0.216;stroke-linecap:butt;stroke-linejoin:miter;stroke-dasharray:none"
         id="path52" />
      <path
         d="m 2137.4463,1176.8761 c 3.6389,6.2521 4.1222,13.019 4.4562,20.9294 2.9512,52.0994 -10.7476,80.7034 -29.2445,116.6363 l 120.8724,31.9284 c 44.0712,-64.3796 35.6696,-166.0949 -4.3462,-228.4901 l -108.8044,7.3249 c 3.7057,15.5733 17.4084,31.7242 17.0665,51.6711 z"
         style="fill:#e30016;fill-rule:evenodd;stroke:#e30016;stroke-width:0.216;stroke-linecap:butt;stroke-linejoin:miter;stroke-dasharray:none"
         id="path54" />
      <path
         d="m 1934.9194,1463.4466 c 24.1596,14.0722 56.4496,25.9279 83.0574,38.6875 36.7423,17.6246 25.6646,18.9607 80.1965,-16.2216 24.4543,-15.7776 31.7791,-23.8609 51.8008,-39.1787 7.317,-5.5919 9.2779,-8.7671 15.9583,-15.0349 12.685,-11.8951 50.3508,-49.333 56.9722,-67.9713 l -122.0945,-31.8892 -24.5172,30.1955 c -25.5153,25.9436 -62.7409,55.64 -94.2765,74.192 -14.0249,8.2523 -34.636,18.21 -47.097,27.2207 z"
         style="fill:#009634;fill-rule:evenodd;stroke:#009634;stroke-width:0.216;stroke-linecap:butt;stroke-linejoin:miter;stroke-dasharray:none"
         id="path56" />
      <path
         d="m 505.635,1086.9262 90.9795,30.9068 c 5.9966,-6.2678 20.7093,-31.0679 41.7723,-53.6949 38.3338,-41.1829 90.1621,-74.3649 141.5031,-100.3871 9.8713,-5.0025 23.8374,-10.1425 31.5788,-16.7365 -9.0736,-7.9693 -27.1815,-16.3002 -38.6521,-23.0828 -23.2204,-13.7302 -18.5795,-12.8893 -44.0398,-0.2083 -57.9389,28.8673 -110.0147,54.5909 -159.7525,97.5971 -15.2549,13.1919 -55.0113,47.7847 -63.3893,65.6057 z"
         style="fill:#ffec00;fill-rule:evenodd;stroke:#ffec00;stroke-width:0.216;stroke-linecap:butt;stroke-linejoin:miter;stroke-dasharray:none"
         id="path58" />
      <path
         d="m 928.3682,1525.5235 c -35.7756,9.5726 -65.4642,44.4091 -62.5169,91.4353 6.4328,102.6231 149.4607,78.8605 144.5801,-26.8317 -1.9099,-41.4304 -36.2669,-76.8524 -82.0632,-64.6036 z"
         style="fill:#ffec00;fill-rule:evenodd;stroke:#ffec00;stroke-width:0.216;stroke-linecap:butt;stroke-linejoin:miter;stroke-dasharray:none"
         id="path60" />
      <path
         d="m 1935.7604,965.0674 c 38.1609,17.377 107.9596,64.5329 136.9762,96.2335 l 32.8873,40.5894 c 2.3853,2.7587 1.344,1.7998 3.8,3.9061 l 106.317,-6.5743 c -10.2957,-29.6532 -93.3177,-97.2984 -117.3554,-112.3254 -24.1124,-15.0742 -45.4741,-28.8398 -72.6791,-42.9316 -13.2783,-6.8808 -44.4956,6.4957 -66.1676,12.7085 -4.3148,1.2379 -7.9733,2.0828 -12.123,3.3363 l -10.0364,4.1183 c -0.393,0.2043 -1.1082,0.5816 -1.619,0.9392 z"
         style="fill:#ffe900;fill-rule:evenodd"
         id="path62" />
      <path
         d="m 2138.9553,1552.0644 c -91.6436,24.1556 -61.0827,167.8516 44.468,140.9216 87.6354,-22.3598 59.6601,-168.3663 -44.468,-140.9216 z"
         style="fill:#e30016;fill-rule:evenodd;stroke:#e30016;stroke-width:0.216;stroke-linecap:butt;stroke-linejoin:miter;stroke-dasharray:none"
         id="path64" />
      <path
         d="m 1444.4663,1551.9505 c -89.4626,23.0356 -62.1476,168.8771 44.6135,140.953 33.5907,-8.7868 62.792,-47.0341 50.0481,-91.3136 -10.1267,-35.194 -47.2777,-61.841 -94.6616,-49.6394 z"
         style="fill:#e30016;fill-rule:evenodd;stroke:#e30016;stroke-width:0.216;stroke-linecap:butt;stroke-linejoin:miter;stroke-dasharray:none"
         id="path66" />
      <path
         d="m 1563.2678,838.3673 c -8.213,-1.7762 -5.694,-0.7506 -7.9104,-8.9007 -1.3282,-4.8807 -2.5621,-11.121 -3.4109,-16.6185 -21.955,0.8881 -64.4897,-4.6842 -88.2995,-6.6687 -30.168,-2.5189 -64.6547,-2.9236 -95.0624,-3.0573 -63.6409,-0.279 -125.6627,3.018 -187.8653,8.2484 l 1.6819,42.4993 c 29.5039,-0.7584 60.4185,-5.7805 90.7712,-6.7315 132.4925,-4.1537 152.6909,0.5776 283.9494,9.5451 z"
         style="fill:#009634;fill-rule:evenodd;stroke:#009634;stroke-width:0.216;stroke-linecap:butt;stroke-linejoin:miter;stroke-dasharray:none"
         id="path68" />
      <path
         d="m 681.7192,552.4255 c -9.4902,-18.5716 -19.7191,-30.3252 -22.9886,-55.6951 -3.4306,-26.6509 5.2147,-46.2482 27.4134,-50.8537 -5.0772,-28.7337 -9.0343,-60.2732 2.5699,-85.5134 -44.1183,25.6961 -107.1972,54.9406 -127.9733,96.0291 -16.3159,32.2665 6.1814,62.8471 25.3463,75.3592 24.6586,16.0958 61.1141,20.0294 95.6323,20.6739 z"
         style="fill:#009634;fill-rule:evenodd;stroke:#009634;stroke-width:0.216;stroke-linecap:butt;stroke-linejoin:miter;stroke-dasharray:none"
         id="path70" />
      <path
         d="m 1947.6751,1690.5417 c 26.2305,1.9334 64.2853,3.5603 85.0379,-8.3387 44.3344,-25.4249 50.4961,-89.6395 0.4362,-119.9686 -20.0727,-12.1623 -58.3201,-10.056 -84.7785,-8.8025 z"
         style="fill:#e30016;fill-rule:evenodd;stroke:#e30016;stroke-width:0.216;stroke-linecap:butt;stroke-linejoin:miter;stroke-dasharray:none"
         id="path72" />
      <path
         d="m 785.2343,276.5476 c 14.0917,-5.4937 33.6379,-19.7583 65.4092,-31.6416 26.0654,-9.7535 48.9478,-15.2078 78.3731,-19.1571 -2.9747,-32.6477 -19.1649,-48.5942 -36.5733,-62.4463 -9.9774,-7.9379 -50.2761,-34.974 -65.979,-31.4216 -19.6012,4.4327 -18.5009,7.6629 -27.7356,21.2634 -7.5174,11.0738 -12.8303,18.3791 -17.2983,33.6733 -5.1675,17.6756 -4.5074,75.367 3.8039,89.7299 z"
         style="fill:#009634;fill-rule:evenodd;stroke:#009634;stroke-width:0.216;stroke-linecap:butt;stroke-linejoin:miter;stroke-dasharray:none"
         id="path74" />
      <path
         d="m 1628.4098,1690.357 36.2669,0.7231 0.012,-82.1103 c 24.6311,28.0224 40.8095,53.0976 59.7308,75.705 5.3404,6.3817 6.9476,6.2913 16.6264,6.5075 7.7296,0.1729 16.7364,-0.1454 24.5329,-0.3851 l -0.059,-137.5185 -35.0368,-0.114 -0.9667,81.9177 c -8.8693,-6.3503 -61.5582,-80.0314 -65.928,-81.5994 l -34.5142,-0.2279 z"
         style="fill:#e30016;fill-rule:evenodd;stroke:#e30016;stroke-width:0.216;stroke-linecap:butt;stroke-linejoin:miter;stroke-dasharray:none"
         id="path76" />
      <path
         d="m 1277.6444,395.7263 c 44.6173,-3.8667 51.0188,-17.4673 54.4218,-46.5586 6.0399,16.9801 17.8446,29.6022 -1.9334,44.8139 -12.8657,9.8949 -33.1584,12.2959 -52.1426,14.3865 l 0.4794,30.7456 c 10.225,4.6134 15.9308,7.9262 20.9333,18.159 4.9946,10.2092 5.3876,22.3794 4.9121,34.6989 l 48.7906,-5.922 c -9.2661,-62.1122 34.5418,-58.7366 10.4451,-92.9365 -4.134,-5.867 -6.4407,-10.1778 -8.8889,-17.6599 -5.6273,-17.1962 0.5501,-30.392 5.4544,-42.8451 -9.1247,-7.1795 -25.2717,-11.6907 -38.6365,-14.0131 l 7.2463,14.3982 c -26.7138,-10.9794 -34.7893,-26.1479 -73.9365,-24.9651 -9.2072,22.1161 2.8843,44.4523 13.459,64.973 4.1851,8.1187 5.3798,16.0763 9.3959,22.7252 z"
         style="fill:#ffec00;fill-rule:evenodd;stroke:#ffec00;stroke-width:0.216;stroke-linecap:butt;stroke-linejoin:miter;stroke-dasharray:none"
         id="path78" />
      <path
         d="m 1021.8588,1639.5347 c 21.845,5.0772 111.7281,20.3793 131.3843,18.7406 l 5.2461,-88.4213 c -21.4049,-3.9847 -44.3187,-6.2717 -65.979,-9.7888 -21.7664,-3.5367 -45.1558,-9.5137 -66.1441,-12.1859 11.8715,46.2954 13.3373,42.0356 -4.5073,91.6554 z"
         style="fill:#008bd0;fill-rule:evenodd;stroke:#008bd0;stroke-width:0.216;stroke-linecap:butt;stroke-linejoin:miter;stroke-dasharray:none"
         id="path80" />
      <path
         d="m 1272.8187,1690.8443 35.925,0.055 -0.01,-45.4465 c 22.0219,0 41.9492,1.8273 55.6676,-10.5983 11.8558,-10.7358 16.2806,-33.41 10.9638,-51.3921 -11.5847,-39.1944 -59.5423,-30.3134 -101.7232,-30.278 z"
         style="fill:#e30016;fill-rule:evenodd;stroke:#e30016;stroke-width:0.216;stroke-linecap:butt;stroke-linejoin:miter;stroke-dasharray:none"
         id="path82" />
      <path
         d="m 2267.2666,1650.5378 -14.473,28.0617 c 22.4305,19.7976 80.0237,26.1794 96.5086,-10.4725 28.2542,-62.8117 -56.4064,-57.8604 -53.8246,-77.8702 8.6256,-17.8053 25.3542,-7.5057 37.9684,-2.0434 5.8631,-6.3111 11.6279,-17.4438 13.7342,-26.7925 -46.1775,-31.0679 -108.5923,5.1125 -86.091,52.3353 11.1484,23.4011 43.5563,18.5244 52.3745,29.9125 9.7966,12.6496 -2.9905,21.6171 -17.6521,20.3832 -14.7833,-1.2457 -19.5107,-9.8595 -28.545,-13.5141 z"
         style="fill:#e30016;fill-rule:evenodd;stroke:#e30016;stroke-width:0.216;stroke-linecap:butt;stroke-linejoin:miter;stroke-dasharray:none"
         id="path84" />
      <path
         d="m 1800.6626,910.284 c 20.8311,5.5054 71.3626,25.0477 91.4668,34.4238 21.1926,9.891 23.6565,4.2283 47.9654,-2.7272 16.4889,-4.7156 33.9208,-9.0814 49.3801,-14.6301 -21.1337,-18.9567 -176.9919,-68.0735 -208.6021,-73.7361 3.0062,18.5519 12.0012,41.8155 19.7898,56.6696 z"
         style="fill:#008bd0;fill-rule:evenodd;stroke:#008bd0;stroke-width:0.216;stroke-linecap:butt;stroke-linejoin:miter;stroke-dasharray:none"
         id="path86" />
      <path
         d="m 719.0942,1543.6746 c 10.056,8.7356 100.0688,45.5723 114.9347,46.0871 3.6703,-8.7632 3.3088,-15.479 7.8436,-24.9691 9.7416,-20.3674 31.1229,-46.0792 52.9207,-51.7536 -1.8194,-1.399 -1.6269,-1.399 -4.8295,-3.0298 l -17.6678,-6.9084 c -48.044,-17.4044 -41.0217,-23.7312 -69.7672,-6.4682 -19.7387,11.8597 -70.5374,36.424 -83.4345,47.042 z"
         style="fill:#e30016;fill-rule:evenodd;stroke:#e30016;stroke-width:0.216;stroke-linecap:butt;stroke-linejoin:miter;stroke-dasharray:none"
         id="path88" />
      <path
         d="m 1947.3804,775.9407 c -47.6393,9.8831 -79.1748,1.0492 -123.9454,-9.6906 0.1179,22.906 -0.7388,25.2874 44.0004,30.4117 22.737,2.6053 45.9652,1.7408 67.6805,-4.3541 15.9152,-4.468 10.3154,1.4618 25.8572,2.5897 13.015,0.947 20.5796,4.2715 28.3997,10.4136 14.6144,11.4824 20.8114,29.3899 44.0043,29.944 -1.8037,-13.6045 -25.7471,-16.1038 -34.6282,-46.2875 38.0863,8.2798 48.217,27.6177 60.7054,19.0078 -0.1454,-20.5286 -42.739,-19.8016 -59.6011,-31.7517 l 16.9997,-10.559 c 6.2756,-2.4678 13.9856,-4.6331 21.2162,-5.8552 14.1979,-2.3971 39.5953,-0.3733 32.1014,-17.5852 -21.283,-10.0599 -60.5914,17.1687 -78.55,23.9356 7.49,-51.4118 57.1923,-47.4704 56.206,-63.5112 -16.0724,-6.1264 -37.3633,8.9596 -43.9847,16.7521 -11.062,13.0268 -17.1098,27.1618 -33.2096,35.7246 -1.45,-13.019 -6.0517,-14.6341 -7.1756,-27.8024 -1.1631,-13.6438 -0.094,-19.5736 -7.486,-27.8181 -10.1621,0.2044 -12.7949,0.7978 -12.5434,11.9659 0.1689,7.4506 3.1673,13.9031 5.9062,20.8507 8.496,21.5189 1.344,22.0415 -1.953,43.6193 z"
         style="fill:#f4c893;fill-rule:evenodd"
         id="path90" />
      <path
         d="m 721.8292,757.1569 -29.0638,-34.9268 c -8.6767,-8.8025 -24.1517,-22.3677 -43.8,-17.9507 4.2205,17.428 51.4,14.9052 56.8544,63.912 -17.3495,-6.425 -56.6579,-33.0327 -78.884,-23.8334 -6.5311,20.6661 25.6292,12.0444 53.856,23.1143 l 13.0739,7.5567 c 5.3287,5.5369 -1.0806,-2.9001 3.9965,5.2068 -19.6758,5.6155 -61.4913,14.4179 -59.6483,29.61 l 3.5288,1.3321 c 14.4926,1.9256 22.965,-14.4218 56.7679,-20.2416 -3.0651,10.4175 -8.7081,19.5304 -14.9602,25.5467 -3.7018,3.5642 -6.3111,6.201 -10.6573,9.3644 -6.6529,4.8452 -6.4525,1.8705 -8.9596,10.2642 21.4127,7.6354 35.925,-36.7344 68.3054,-39.1826 18.1432,-1.3715 14.3079,-6.8533 30.1837,-2.5936 28.6708,7.6864 102.8942,6.3386 109.8458,-8.4998 2.4914,-5.3169 1.7644,-12.0759 0.8213,-17.5185 -37.4732,12.6378 -82.3696,17.9704 -123.077,9.7692 -2.8961,-14.7009 -9.0421,-24.4268 -4.8531,-37.155 4.7156,-14.3354 10.9284,-21.4481 6.983,-38.0784 l -11.1602,-1.6387 c -7.0734,9.0933 -5.7924,14.6577 -7.0223,28.325 -0.8764,9.7888 -4.3148,21.9786 -12.1309,27.6177 z"
         style="fill:#f4c893;fill-rule:evenodd"
         id="path92" />
      <path
         d="m 1438.9176,719.3182 c -4.8334,-9.9538 -50.2132,-58.8742 -62.5798,-48.9321 -1.902,1.729 -5.9338,-1.1121 -2.4953,9.2386 3.8785,11.6632 43.6271,17.0626 56.8071,47.2777 -17.9821,-0.008 -65.4878,-9.7848 -67.3701,8.213 7.6393,7.4349 16.3514,3.187 28.1796,2.0395 11.2899,-1.0924 22.8156,-0.004 34.1606,0.3419 -7.2345,19.499 -42.3185,21.566 -48.2091,32.0071 35.9053,8.5706 43.6192,-24.305 79.7957,-13.1329 15.7226,4.857 15.1528,-0.8488 27.6844,7.7807 24.0063,16.5321 47.9105,25.6921 78.9194,26.1676 17.8643,0.2751 20.7761,1.5837 22.4266,-14.7284 -45.2107,0.4284 -72.7184,-11.8361 -106.6864,-30.4548 1.0689,-16.4535 1.3754,-28.7573 9.9067,-38.8212 4.7274,-5.5801 20.5364,-18.2257 17.825,-29.3113 -4.4445,-18.1786 -19.2279,1.6426 -23.2558,10.5236 -8.9321,19.6758 -7.1755,13.4316 -20.0648,28.0657 -10.6219,-9.6041 -12.3549,-30.5649 -18.2533,-45.4348 -5.2815,-13.3137 -19.998,-29.3349 -35.0997,-30.9303 1.3125,14.2332 10.1935,15.1724 23.1889,34.078 8.2523,12.009 15.3493,34.526 5.1203,46.0124 z"
         style="fill:#f4c893;fill-rule:evenodd"
         id="path94" />
      <path
         d="m 705.2421,336.8875 34.5339,-27.5469 c 9.5726,-7.0184 26.871,-21.2752 36.5733,-25.641 -1.2693,-28.1089 -9.7534,-50.2722 -6.1538,-81.6938 3.7764,-32.9344 17.8446,-41.2732 27.315,-63.5622 -23.3146,9.1129 -58.8702,52.4806 -71.3351,77.4772 -17.4555,35.0133 -28.9773,75.6617 -20.9333,120.9667 z"
         style="fill:#008bd0;fill-rule:evenodd;stroke:#008bd0;stroke-width:0.216;stroke-linecap:butt;stroke-linejoin:miter;stroke-dasharray:none"
         id="path96" />
      <path
         d="m 1236.0803,717.766 c -10.7004,-4.7785 -17.5655,-15.0938 -22.2851,-26.4231 -5.7255,-13.7577 -10.8576,-23.7115 -23.9277,-14.3196 -0.2475,13.3569 9.8203,22.8077 17.0626,30.1758 10.2407,10.4215 9.3762,21.5974 10.7123,40.0236 -16.2059,8.8182 -23.7195,14.9249 -45.4426,21.3184 -19.0039,5.5919 -38.5028,9.329 -59.3654,9.2269 l 0.1965,11.1013 c 18.4458,2.5503 41.4422,-1.5562 58.772,-5.6627 30.4509,-7.2148 32.907,-15.2038 45.6391,-20.725 l 25.6646,-5.4662 c 30.054,-7.8121 56.7679,27.4841 76.0939,12.5514 -10.9794,-10.8105 -37.1078,-7.5528 -48.0833,-30.3449 10.6533,-0.2436 22.3087,-1.3439 32.793,-0.5148 11.5257,0.9078 21.7193,5.6784 29.9205,-1.5993 -1.0178,-17.8093 -49.8203,-8.048 -67.099,-8.0519 2.8726,-10.3586 18.0686,-23.5662 27.767,-29.1856 10.6219,-6.1538 39.8467,-16.3513 26.7177,-27.429 -13.6044,-11.4825 -56.0212,42.4207 -65.9908,48.8692 -7.4663,-52.8893 27.2522,-56.2766 31.622,-80.0354 -27.1579,3.7411 -35.8778,31.7871 -41.4618,51.4982 -2.7586,9.7338 -6.8809,16.7129 -9.3055,24.9927 z"
         style="fill:#f4c893;fill-rule:evenodd"
         id="path98" />
      <path
         d="m 937.3318,224.621 91.7183,-6.6529 c -8.2955,-20.4814 -46.6647,-56.6853 -70.3606,-69.9597 -35.4652,-19.8605 -70.7575,-25.1263 -116.7738,-25.3621 l 2.7036,3.1084 c 7.824,7.097 20.1081,10.8459 29.4096,16.1077 10.9009,6.1656 19.9273,12.1033 29.2288,19.4872 16.8111,13.3412 29.8969,33.0877 34.0741,63.2714 z"
         style="fill:#008bd0;fill-rule:evenodd;stroke:#008bd0;stroke-width:0.216;stroke-linecap:butt;stroke-linejoin:miter;stroke-dasharray:none"
         id="path100" />
      <path
         d="m 1768.569,1527.1818 132.9483,-1.1789 0.4834,29.4567 14.414,0.114 0.8252,-27.1618 103.967,-1.6701 c -2.9983,-2.4954 -0.5855,-1.0178 -4.5387,-3.4896 -2.0356,-1.2771 -4.7431,-2.287 -7.5489,-3.4777 l -45.7413,-20.7879 c -9.5687,-4.7274 -19.6679,-9.2111 -30.2073,-14.0564 -13.0779,-6.0163 -19.3417,-12.4138 -32.4865,-5.9574 -41.0492,20.1631 -85.7255,33.3943 -132.1152,48.2091 z"
         style="fill:#008bd0;fill-rule:evenodd;stroke:#008bd0;stroke-width:0.216;stroke-linecap:butt;stroke-linejoin:miter;stroke-dasharray:none"
         id="path102" />
      <path
         d="m 1201.6644,1121.2243 c 14.9052,-21.2477 -15.0624,-56.4221 -32.7341,-71.7399 -33.8226,8.1265 -13.9424,27.0596 -49.8674,20.1788 l -2.2399,-13.3648 c -7.8593,1.2064 -15.306,0.2908 -21.6249,-2.0474 -2.6329,-16.6774 8.2247,-21.2044 16.7521,-29.3506 -38.9901,-5.3797 -20.8586,-0.5737 -34.5889,1.395 -8.4762,1.2143 -22.2615,-9.663 -25.4838,5.5762 -4.6409,21.9472 70.1248,65.6136 87.7257,75.3513 10.7084,5.922 49.9893,23.9238 62.0612,14.0014 z"
         style="fill:#ffffff;fill-rule:evenodd"
         id="path104" />
      <path
         d="m 1781.144,1583.3013 28.9105,0.086 v 107.3505 l 36.0389,0.283 v -107.0479 l 29.4253,-0.9432 0.098,-29.1855 -93.7853,-0.6995 z"
         style="fill:#e30016;fill-rule:evenodd;stroke:#e30016;stroke-width:0.216;stroke-linecap:butt;stroke-linejoin:miter;stroke-dasharray:none"
         id="path106" />
      <path
         d="m 2087.0995,1817.9217 c -46.9084,17.6874 -22.9649,140.7958 19.8487,109.2171 16.7325,-12.3431 27.319,-39.8704 26.9575,-66.3327 -0.3812,-28.0499 -15.9073,-54.5319 -46.8062,-42.8844 z"
         style="fill:#ffffff;fill-rule:evenodd"
         id="path108" />
      <path
         d="m 888.7769,1024.865 c 5.5762,5.4819 15.1449,10.6651 17.2394,18.8113 3.855,15.0231 -10.6258,14.359 -22.5837,12.5671 l -1.175,13.4591 c -17.3966,3.2577 -16.9408,4.7352 -27.1815,-6.2364 -6.3896,-6.8455 -13.5416,-11.6357 -23.2793,-14.0053 -10.1896,8.7317 -19.3064,16.5046 -26.2894,28.7651 -5.6233,9.8713 -14.2411,31.4962 -6.4564,43.1045 4.7902,5.1282 27.1303,0.22 32.6987,-1.344 10.5747,-2.9747 19.0117,-7.1166 27.9556,-11.9933 17.6756,-9.6355 90.8498,-52.8422 89.3565,-74.3335 -1.1789,-16.9565 -17.0783,-6.9712 -23.9316,-7.1834 -13.074,-0.4047 0.1336,-7.8672 -36.3533,-1.6112 z"
         style="fill:#ffffff;fill-rule:evenodd"
         id="path110" />
      <path
         d="m 1277.1256,1801.9948 c -48.3191,9.9027 -36.0035,130.9166 10.4647,113.3196 34.1174,-12.9207 51.6279,-126.0399 -10.4647,-113.3196 z"
         style="fill:#ffffff;fill-rule:evenodd"
         id="path112" />
      <path
         d="m 1585.7376,1024.5585 c 24.6665,14.0957 22.6152,35.4456 -4.6252,29.8733 -1.9255,6.0792 -0.5658,12.3391 -8.7238,14.7716 -21.7428,6.48 -31.0915,-31.7399 -48.3309,-17.935 -8.6413,6.9202 -18.4576,18.1315 -23.4483,27.8181 -6.814,13.2194 -9.4823,24.9023 -5.9259,40.9392 28.1678,12.8539 95.1921,-34.1409 111.9128,-45.9377 11.2388,-7.9301 38.3417,-26.3366 38.8918,-40.7545 0.7074,-18.6266 -18.0017,-7.8751 -25.81,-8.885 -9.1404,-1.1789 -2.6761,-4.0554 -15.8994,-4.0397 -6.2049,0.01 -14.1821,1.8666 -18.0411,4.1497 z"
         style="fill:#ffffff;fill-rule:evenodd"
         id="path114" />
      <path
         d="m 1899.0849,1120.0257 c 7.4978,-31.9324 -13.0308,-54.0643 -28.2189,-67.7356 -9.7142,-8.7434 -22.2301,1.6544 -29.8458,9.9892 -5.3365,5.8435 -5.2147,9.5609 -17.652,7.3603 -11.1721,-1.9766 -8.2445,-7.541 -10.7437,-15.1724 -27.7002,5.3758 -28.7966,-16.2963 -4.5781,-29.834 -4.2322,-2.5111 -9.8792,-3.9415 -16.2452,-4.2165 -14.5673,-0.6366 -7.0813,1.6544 -15.9977,3.6624 -9.6473,2.177 -25.9475,-9.5058 -27.5115,7.486 -1.3833,15.0663 28.0106,34.8325 38.8683,42.4914 16.7521,11.8244 83.7017,58.7799 111.9246,45.9692 z"
         style="fill:#ffffff;fill-rule:evenodd"
         id="path116" />
      <path
         d="m 1172.3295,1659.0101 c 0.6876,0.2987 1.619,-0.098 1.9726,0.6602 l 68.6512,6.1539 -1.3479,-87.9223 -63.8923,-5.4465 z"
         style="fill:#009634;fill-rule:evenodd;stroke:#009634;stroke-width:0.216;stroke-linecap:butt;stroke-linejoin:miter;stroke-dasharray:none"
         id="path118" />
      <path
         d="m 1062.7194,667.9261 c -11.1956,-20.615 -48.7553,-36.3061 -77.7169,-38.5618 l 11.7851,33.8226 c -15.5025,-2.9433 -13.1447,-3.9807 -18.4694,-17.9428 -11.6436,-30.5453 -26.262,-44.3266 -71.6063,-41.9138 7.5371,25.4014 33.5239,54.9406 56.4496,68.1207 13.8481,7.9615 32.2625,12.5867 50.5983,11.9658 23.9513,-0.8134 32.2625,-8.4252 48.9596,-15.4907 z"
         style="fill:#e20216;fill-rule:evenodd"
         id="path120" />
      <path
         d="m 1887.846,1937.4698 c 33.0406,-7.2305 53.5338,-26.5095 52.8658,-65.5467 -0.6799,-39.7839 -21.9118,-59.1964 -63.2833,-55.6244 z"
         style="fill:#ffffff;fill-rule:evenodd"
         id="path122" />
      <path
         d="m 878.2729,922.1437 c 2.6447,-7.5724 16.0291,-23.0907 21.0001,-29.6768 8.0755,-10.6965 13.8403,-18.1904 17.656,-34.1566 -36.5105,5.5015 -108.4429,31.3115 -140.2653,45.2658 45.5173,21.9314 49.1718,38.6207 73.3039,28.38 8.7985,-3.7371 18.0882,-8.3545 28.3053,-9.8124 z"
         style="fill:#e30016;fill-rule:evenodd;stroke:#e30016;stroke-width:0.216;stroke-linecap:butt;stroke-linejoin:miter;stroke-dasharray:none"
         id="path124" />
      <path
         d="m 896.8602,930.227 c -8.2483,25.2756 -6.4721,26.1991 15.6912,31.1465 21.5345,4.806 50.8773,8.0165 72.3097,6.5233 9.16,-12.74 8.264,-10.1779 27.2443,-12.8618 l 5.3168,14.6262 c 116.8406,0.6798 82.8923,-24.1517 76.3376,-43.3245 -30.1248,6.4053 -41.0767,19.6325 -97.8053,21.1533 -37.4418,1.006 -67.0479,-6.7079 -99.0943,-17.263 z"
         style="fill:#009634;fill-rule:evenodd;stroke:#009634;stroke-width:0.216;stroke-linecap:butt;stroke-linejoin:miter;stroke-dasharray:none"
         id="path126" />
      <path
         d="m 1564.0223,1690.4867 8.6217,0.5973 27.5626,-0.098 0,-137.8682 -36.1922,0.1807 z"
         style="fill:#e30016;fill-rule:evenodd;stroke:#e30016;stroke-width:0.216;stroke-linecap:butt;stroke-linejoin:miter;stroke-dasharray:none"
         id="path128" />
      <path
         d="m 1459.6938,1585.0028 c -51.1799,9.4627 -36.7974,84.7235 14.1585,74.8522 48.3742,-9.3762 35.367,-84.0083 -14.1585,-74.8522 z"
         style="fill:#ffffff;fill-rule:evenodd"
         id="path130" />
      <path
         d="m 2152.6777,1585.5019 c -35.811,7.6275 -40.955,49.3212 -13.9857,68.6119 24.6626,17.6402 67.7277,-1.5758 59.1335,-41.2379 -3.8628,-17.821 -22.2615,-32.2507 -45.1478,-27.374 z"
         style="fill:#ffffff;fill-rule:evenodd"
         id="path132" />
      <path
         d="m 1983.883,1660.1694 c 63.8374,7.5331 61.9079,-85.5723 -0.055,-75.9525 z"
         style="fill:#ffffff;fill-rule:evenodd"
         id="path134" />
      <path
         d="m 1007.9478,603.7154 c -1.5561,-26.1519 4.079,-37.375 6.0045,-60.391 L 978.216,525.299 c -17.5459,40.1965 -38.2788,76.487 29.7318,78.4164 z"
         style="fill:#ffffff;fill-rule:evenodd"
         id="path136" />
      <path
         d="m 1060.7467,610.0736 c 13.0072,-72.5219 -12.457,-55.7972 -37.5911,-63.8373 -12.0287,39.8114 -19.2475,81.9924 37.5911,63.8373 z"
         style="fill:#ffffff;fill-rule:evenodd"
         id="path138" />
      <path
         d="m 708.8967,1798.4856 6.311,64.9494 c 20.6818,-0.8095 41.289,-14.1978 40.9039,-35.756 -0.4009,-22.3912 -25.1106,-36.2943 -47.2149,-29.1934 z"
         style="fill:#ffffff;fill-rule:evenodd"
         id="path140" />
      <path
         d="m 948.6728,569.8221 c 5.6391,-4.9121 20.7997,-47.6039 21.2516,-49.4587 -13.9935,-6.2049 -22.3126,-19.3261 -36.2315,-26.1008 -20.7564,69.445 -8.0361,52.5946 14.9799,75.5595 z"
         style="fill:#ffffff;fill-rule:evenodd"
         id="path142" />
      <path
         d="m 1091.6221,865.7216 71.0011,-9.5844 -1.5483,-41.175 -11.6947,-0.9981 -6.2128,23.7705 c -0.1925,0.4676 -0.4872,1.2575 -0.8252,1.8351 -9.6591,0.896 -21.4992,3.1163 -31.1465,1.8195 -12.0326,-1.619 -17.7974,-9.9499 -25.0516,-7.4978 -3.5288,13.9149 -1.5483,21.4284 5.478,31.8302 z"
         style="fill:#e30016;fill-rule:evenodd;stroke:#e30016;stroke-width:0.216;stroke-linecap:butt;stroke-linejoin:miter;stroke-dasharray:none"
         id="path144" />
      <path
         d="m 525.633,1855.9058 c 22.5641,-0.075 41.5837,-3.6978 42.963,-26.1008 1.4422,-23.4955 -17.094,-33.017 -40.3576,-31.7792 z"
         style="fill:#ffffff;fill-rule:evenodd"
         id="path146" />
      <path
         d="m 1069.278,554.52 1.1671,54.4415 c 38.3928,15.4279 33.4218,-31.9167 32.3411,-58.7877 z"
         style="fill:#ffffff;fill-rule:evenodd"
         id="path148" />
      <path
         d="m 519.99,1967.3117 c 20.6465,-0.2004 39.4263,-3.0573 39.9097,-24.3875 0.4872,-21.4638 -18.8545,-24.2342 -37.8348,-23.4719 z"
         style="fill:#ffffff;fill-rule:evenodd"
         id="path150" />
      <path
         d="m 913.2823,532.9226 c 1.5404,-2.1142 1.2889,-1.175 2.6721,-4.8138 1.2379,-3.2577 0.6052,-1.3283 1.513,-5.3247 l 9.5097,-35.1273 c -13.4355,-7.6274 -33.0956,-29.1581 -43.4895,-35.194 8.0047,46.6215 16.2766,50.1307 29.7947,80.4598 z"
         style="fill:#ffffff;fill-rule:evenodd"
         id="path152" />
      <path
         d="m 1111.3922,548.1854 -0.1218,47.3406 c 16.2688,-7.5803 36.6284,-39.1473 46.1656,-58.7641 z"
         style="fill:#ffffff;fill-rule:evenodd"
         id="path154" />
      <path
         d="m 1308.8734,1616.3772 c 16.7914,-0.012 29.6846,1.9767 30.9303,-15.2352 1.4501,-19.9784 -14.0249,-18.7249 -31.0639,-18.7524 z"
         style="fill:#ffffff;fill-rule:evenodd"
         id="path156" />
      <g
         id="Layer1002">
        <path
           d="m 2013.5009,386.4013 c -9.2544,-3.3638 -5.6548,-3.3599 -11.0542,3.1948 -8.4252,10.2328 -23.4561,27.6216 -39.3673,18.8859 -15.9033,-8.5902 -5.5015,-32.4786 -0.8056,-47.042 l -17.2984,-5.7019 c -3.8157,26.2305 -10.6297,63.633 17.5499,70.5099 23.4247,5.7177 46.0399,-23.5033 50.9756,-39.8467 z"
           style="fill:#e30016;fill-rule:evenodd;stroke:#e30016;stroke-width:0.216;stroke-linecap:butt;stroke-linejoin:miter;stroke-dasharray:none"
           id="path158" />
        <path
           d="m 1931.147,328.3759 c 6.3582,-3.073 6.6961,-4.7667 13.5023,-9.7259 -8.268,-6.539 -33.8776,-23.1772 -22.5995,-40.1887 13.3726,-20.1748 42.7704,0.0983 51.9265,-7.4427 -8.0361,-22.4266 -91.0227,-24.0339 -63.1535,31.6416 7.4349,14.8502 13.628,14.7873 20.3242,25.7157 z"
           style="fill:#e30016;fill-rule:evenodd;stroke:#e30016;stroke-width:0.216;stroke-linecap:butt;stroke-linejoin:miter;stroke-dasharray:none"
           id="path160" />
        <path
           d="m 1960.6351,322.7172 c -35.7009,5.0771 -19.8251,33.4925 11.1799,28.1442 29.3742,-5.0653 17.5185,-32.2232 -11.1799,-28.1442 z"
           style="fill:#e30016;fill-rule:evenodd;stroke:#e30016;stroke-width:0.216;stroke-linecap:butt;stroke-linejoin:miter;stroke-dasharray:none"
           id="path162" />
        <path
           d="m 1956.3754,314.6103 10.3507,-32.7537 c -49.4823,-19.8095 -49.6827,17.1647 -10.3507,32.7537 z"
           style="fill:#ffec00;fill-rule:evenodd;stroke:#ffffff;stroke-width:0.216;stroke-linecap:butt;stroke-linejoin:miter;stroke-dasharray:none"
           id="path164" />
        <path
           d="m 1964.5609,402.0531 c 15.7029,2.8883 29.1895,-8.9046 34.7146,-23.5033 -9.7456,-3.3324 -18.6973,-10.1739 -27.374,-15.5811 -7.9694,9.3487 -10.9323,25.4642 -7.3406,39.0844 z"
           style="fill:#ffec00;fill-rule:evenodd;stroke:#ffffff;stroke-width:0.216;stroke-linecap:butt;stroke-linejoin:miter;stroke-dasharray:none"
           id="path166" />
      </g>
      <g
         id="Layer1003">
        <path
           d="m 1431.4762,463.9699 c -7.4946,-5.4176 -4.1235,-4.347 -11.4735,-0.7388 -11.4708,5.6342 -31.6321,14.9967 -43.4857,3.3358 -11.897,-11.543 6.1994,-27.4438 15.69,-37.6255 l -14.2137,-9.6611 c -12.7445,19.7151 -32.2037,47.4201 -8.206,61.2418 19.948,11.4903 51.3514,-5.0268 61.6889,-16.5522 z"
           style="fill:#e30016;fill-rule:evenodd;stroke:#e30016;stroke-width:0.216;stroke-linecap:butt;stroke-linejoin:miter;stroke-dasharray:none"
           id="path169" />
        <path
           d="m 1374.6025,393.4335 c 7.0313,-0.5568 7.94,-1.8026 16.0504,-3.7257 -5.4605,-7.6486 -23.638,-28.4659 -7.1246,-38.6415 19.5816,-12.0685 40.0376,12.7611 51.2522,9.4829 0.3107,-20.2065 -76.8783,-46.0922 -70.2303,6.42 1.7746,14.0068 7.599,15.7934 10.0523,26.4643 z"
           style="fill:#e30016;fill-rule:evenodd;stroke:#e30016;stroke-width:0.216;stroke-linecap:butt;stroke-linejoin:miter;stroke-dasharray:none"
           id="path171" />
        <path
           d="m 1404.2084,397.6805 c -35.2234,-6.5515 -30.2825,20.7393 0.6359,25.6829 29.2917,4.6848 27.6777,-20.4146 -0.6359,-25.6829 z"
           style="fill:#e30016;fill-rule:evenodd;stroke:#e30016;stroke-width:0.216;stroke-linecap:butt;stroke-linejoin:miter;stroke-dasharray:none"
           id="path173" />
        <path
           d="m 1406.1861,396.4121 24.9329,-27.0717 c -46.4942,-35.8612 -61.9544,-1.2863 -24.9329,27.0717 z"
           style="fill:#ffec00;fill-rule:evenodd;stroke:#ffffff;stroke-width:0.216;stroke-linecap:butt;stroke-linejoin:miter;stroke-dasharray:none"
           id="path175" />
        <path
           d="m 1380.1524,461.8968 c 13.7025,6.952 30.4608,1.5788 40.7406,-8.3851 -7.9657,-5.5383 -13.9611,-13.6301 -20.2001,-20.5004 -10.7346,5.0666 -19.1443,16.9958 -20.5405,28.8855 z"
           style="fill:#ffec00;fill-rule:evenodd;stroke:#ffffff;stroke-width:0.216;stroke-linecap:butt;stroke-linejoin:miter;stroke-dasharray:none"
           id="path177" />
      </g>
      <path
         d="m 1581.5329,839.6208 -3.6114,21.0591 28.0185,3.0926 c 7.0577,-9.9381 9.1129,-18.2061 5.3601,-32.0974 -6.37,-2.1614 -19.1453,6.4289 -29.7672,7.9457 z"
         style="fill:#008bd0;fill-rule:evenodd;stroke:#008bd0;stroke-width:0.216;stroke-linecap:butt;stroke-linejoin:miter;stroke-dasharray:none"
         id="path180" />
      <path
         d="m 1086.2463,467.2265 c 13.0583,-17.8367 -4.0711,-44.3501 -18.4301,-36.4594 -7.9772,4.3816 -7.4978,41.7684 18.4301,36.4594 z"
         style="fill:#000200;fill-rule:evenodd;stroke:#000200;stroke-width:0.216;stroke-linecap:butt;stroke-linejoin:miter;stroke-dasharray:none"
         id="path182" />
      <path
         d="m 1010.0349,467.2265 c 13.0582,-17.8367 -4.0711,-44.3501 -18.4301,-36.4594 -7.9772,4.3816 -7.4978,41.7684 18.4301,36.4594 z"
         style="fill:#000200;fill-rule:evenodd;stroke:#000200;stroke-width:0.216;stroke-linecap:butt;stroke-linejoin:miter;stroke-dasharray:none"
         id="path184" />
      <g
         id="Layer1004">
        <path
           d="m 1520.4974,450.8909 3.6467,-25.9711 c -2.1102,1.6112 -1.9137,1.3479 -3.8903,3.7292 l -18.2179,28.5097 c -14.2411,19.7977 -15.4436,5.5998 -16.0606,38.0156 -10.2289,-10.1346 -12.6613,-27.1186 -39.3634,-43.1045 -73.5161,-44.02 -52.8264,120.3105 31.6141,108.2936 12.4021,41.7527 58.3044,92.3981 84.1184,110.8282 93.742,66.9261 195.6381,69.6022 292.7479,5.9417 30.4038,-19.9313 73.7165,-65.0713 90.5276,-104.4897 33.5004,4.02 42.8687,-4.0868 58.3908,-21.6249 10.9481,-12.3667 24.9337,-37.9527 26.82,-59.3693 2.5189,-28.553 -13.2351,-51.2074 -40.5423,-34.1213 -20.3832,12.7518 -29.3114,38.8133 -38.3496,48.7239 -11.3528,-21.1691 -1.3322,-32.5219 -21.9864,-58.5677 l -7.6039,52.905 c -0.169,0.4598 -0.5659,1.2379 -0.7152,1.6073 -0.1494,0.3733 -0.4598,1.0924 -0.7585,1.6033 -2.8922,-7.5843 -22.2615,-46.2875 -27.0282,-53.2273 -1.4068,-2.0434 -17.0861,-16.0684 -20.7407,-19.0824 -34.1291,-28.1796 -32.2468,-32.907 -71.3469,-52.8107 -15.0153,-7.6432 -40.1651,-23.0632 -58.4891,-23.8374 15.4435,30.6042 50.5865,26.6824 68.4272,35.4338 l -20.6465,16.5635 c -9.6591,7.1284 -11.117,9.498 -27.5312,9.3723 -77.5558,-0.5856 -61.8921,9.0146 -99.7623,-15.0231 -26.5723,-16.8661 -34.1409,-34.4514 -57.8367,-57.377 -5.5841,9.6237 -3.0691,26.1597 -9.8556,36.5773 -5.3719,8.2444 -14.6105,19.2514 -21.0984,27.7237 -8.3898,10.9559 -41.6662,36.593 -54.469,42.7783 z"
           style="fill:#f4c893;fill-rule:evenodd;stroke:#000200;stroke-width:0.216;stroke-linecap:butt;stroke-linejoin:miter;stroke-dasharray:none"
           id="path186" />
        <path
           d="m 1519.2949,519.2159 c 4.1851,8.94 10.1346,16.2217 15.2078,26.7453 11.1878,23.2007 34.9347,63.4797 49.4273,81.4186 22.8353,28.2779 53.9071,66.875 112.7734,62.0101 94.2293,-7.7807 133.9857,-144.753 130.673,-219.2633 l -1.8233,-41.8862 c -12.0012,5.9612 -67.8967,67.1736 -126.2404,95.4278 -30.616,14.8266 -49.2583,21.6014 -89.2583,17.8721 -42.6093,-3.9768 -68.3015,-18.4458 -90.7595,-22.3244 z"
           style="fill:#000200;fill-rule:evenodd"
           id="path188" />
        <path
           d="m 1700.8688,661.4225 11.5965,-34.023 c -28.832,2.3421 -64.4818,16.6185 -77.8545,38.4478 37.5244,18.713 80.3891,25.2127 116.6402,-8.2955 13.3255,-12.3195 35.1076,-38.8093 39.0255,-56.1942 -44.8492,-2.1966 -58.3476,9.8713 -70.6317,40.169 -6.1303,15.1253 -3.0652,16.4103 -18.776,19.8959 z"
           style="fill:#e20216;fill-rule:evenodd"
           id="path190" />
        <path
           d="m 1683.2718,540.719 c 1.1436,22.1476 7.5135,34.9662 6.0556,61.0473 67.0675,-1.8194 49.1208,-38.3142 29.5786,-77.992 z"
           style="fill:#ffffff;fill-rule:evenodd"
           id="path192" />
        <path
           d="m 1635.943,552.7202 -0.5109,53.5299 c 11.3489,8.0558 37.1825,7.6471 44.5309,-2.57 6.0203,-16.7325 -0.2436,-43.2381 -6.1735,-59.3929 z"
           style="fill:#ffffff;fill-rule:evenodd"
           id="path194" />
        <path
           d="m 1727.4294,518.4418 19.0314,49.1522 c 38.4203,-18.2297 29.5471,-37.6422 16.9132,-75.2687 -12.5238,6.7511 -23.2518,20.5599 -35.9446,26.1165 z"
           style="fill:#ffffff;fill-rule:evenodd"
           id="path196" />
        <path
           d="m 1628.0326,552.1779 -33.8069,-3.741 c -0.165,25.0162 -6.9673,54.8856 17.1137,60.5836 22.4619,5.3129 14.0014,-4.9514 16.6932,-56.8426 z"
           style="fill:#ffffff;fill-rule:evenodd"
           id="path198" />
        <path
           d="m 1770.6164,487.873 8.7671,30.8124 c 2.6289,13.1605 3.3284,10.335 4.8059,12.2763 13.4788,-30.781 21.3302,-33.1821 29.5668,-80.562 z"
           style="fill:#ffffff;fill-rule:evenodd"
           id="path200" />
        <path
           d="m 1585.7809,593.6241 0.1493,-47.8201 -46.205,-11.3017 c 8.5588,18.3004 30.8557,51.5729 46.0557,59.1218 z"
           style="fill:#ffffff;fill-rule:evenodd"
           id="path202" />
        <path
           d="m 1618.5503,429.1088 c -17.1372,9.3723 -16.5124,45.6862 3.6467,35.4809 13.6517,-6.9083 16.8858,-46.7079 -3.6467,-35.4809 z"
           style="fill:#000200;fill-rule:evenodd;stroke:#000200;stroke-width:0.216;stroke-linecap:butt;stroke-linejoin:miter;stroke-dasharray:none"
           id="path204" />
        <path
           d="m 1680.2853,424.46 c -10.8813,6.2796 -3.5996,42.8844 13.6241,36.4594 14.249,-5.309 1.7291,-45.3168 -13.6241,-36.4594 z"
           style="fill:#000200;fill-rule:evenodd;stroke:#000200;stroke-width:0.216;stroke-linecap:butt;stroke-linejoin:miter;stroke-dasharray:none"
           id="path206" />
      </g>
      <path
         d="m 2408.8641,2042.7455 h 2.2163 l -2.625,-22.128 -1.8116,-0.055 c 0,10.8302 2.2203,15.6126 2.2203,22.183 z"
         style="fill:#20411b;fill-rule:evenodd"
         id="path209" />
      <path
         d="m 359.3612,1858.6448 c -0.4715,0.4715 -1.6347,0.4558 -2.2163,0.6051 v 0.7192 c 0.3615,0.3104 1.0413,0.7545 2.1731,1.395 2.4482,1.395 -0.2201,2.456 2.5032,-0.2633 1.1985,-1.2025 5.5369,-10.4529 -2.46,-2.456 z"
         style="fill:#969ca4;fill-rule:evenodd"
         id="path211" />
      <path
         d="m 1416.5657,437.6755 c 36.5144,-0.4009 44.8886,15.7776 63.1929,32.0464 5.8945,-8.9282 9.1836,-5.0497 28.2582,-37.603 l 28.0578,-38.6521 -4.5663,38.6993 c 7.2856,-2.4953 19.3772,-12.5749 25.5703,-17.5106 12.3588,-9.8438 33.2607,-36.2472 36.149,-52.6889 2.0905,-11.9147 3.6978,-25.7628 7.0026,-37.2807 l 15.9937,17.6049 c 13.133,16.7207 56.3946,64.2618 78.2907,65.5468 l 73.4611,0.0235 c 12.1072,-0.4872 17.3808,-6.8258 24.2813,-13.1486 -11.8597,-7.042 -31.5355,-7.4939 -41.1396,-16.5321 l -26.4663,-33.127 c 37.2768,2.3499 34.9662,2.7507 63.8335,17.931 66.6156,35.029 46.9594,25.7707 94.5869,67.2679 34.3649,29.9441 19.0235,29.2053 35.0879,46.6923 l 6.6215,-51.9384 c 0.338,0.4087 1.006,0.448 1.2104,1.3086 l 4.5387,5.4033 c 0.9706,1.3675 2.6604,4.2558 4.2637,6.7865 3.4384,5.419 5.2815,8.6531 8.4723,13.7067 13.4356,21.2555 5.0104,21.5895 13.7381,32.18 3.4031,-10.2564 16.764,-23.7037 23.7077,-29.8458 13.5927,-12.0287 23.6172,-12.681 43.4267,-7.1756 -0.8292,-14.9366 -1.175,-37.8465 -7.8869,-48.7553 -7.262,15.9309 -34.8089,47.8515 -62.8745,32.3687 -32.2193,-17.7739 -17.2866,-62.5092 -15.813,-75.1587 2.2281,-19.11 -31.8578,-32.6477 -38.157,-61.57 -3.7175,-17.0704 2.4796,-30.7928 11.3606,-38.2945 11.8637,-10.0324 27.0951,-8.1344 43.2617,-5.8552 -7.0616,-14.4533 -42.739,-43.1437 -57.6835,-52.685 -22.6545,-14.465 -51.4314,-25.3306 -82.4639,-30.2505 -69.3468,-10.9991 -131.7498,9.3487 -186.934,33.4571 -21.9039,9.5688 -155.6696,-5.2971 -198.8133,138.3437 -7.8319,26.0655 -16.3199,68.6669 -11.569,98.7053 z"
         style="fill:#ffec00;fill-rule:evenodd;stroke:#ffec00;stroke-width:0.216;stroke-linecap:butt;stroke-linejoin:miter;stroke-dasharray:none"
         id="path213" />
    </g>
    <g
       id="Layer1006" />
  </g>
</svg>
